<?xml version="1.0" standalone="no"?>
<!DOCTYPE svg PUBLIC "-//W3C//DTD SVG 1.1//EN" "http://www.w3.org/Graphics/SVG/1.1/DTD/svg11.dtd" >
<svg xmlns="http://www.w3.org/2000/svg">
<metadata>
This is a custom SVG webfont generated by Font Squirrel.
Copyright   : CopyrightC 2001 Government of Nunavut Legislative Assembly of Nunavut Tiro Typeworks All rights reserved
Designer    : Wm Ross Mills
Foundry URL : httpwwwassemblynuca
</metadata>
<defs>
<font id="PigiarniqRegular" horiz-adv-x="1193" >
<font-face units-per-em="2048" ascent="1638" descent="-410" />
<missing-glyph horiz-adv-x="1030" />
<glyph unicode=" "  horiz-adv-x="1030" />
<glyph unicode="&#x09;" horiz-adv-x="1030" />
<glyph unicode="&#xa0;" horiz-adv-x="1030" />
<glyph unicode="!" horiz-adv-x="467" d="M119 104q0 25 9 47t25 38t37 25.5t44 9.5t43.5 -9.5t35.5 -25.5t24 -38t9 -47t-9 -47t-24 -38t-35.5 -25.5t-43.5 -9.5t-44 9.5t-37 25.5t-25 38t-9 47zM136 1564h203l-37 -1158h-142z" />
<glyph unicode="&#x22;" horiz-adv-x="772" d="M453 1608h182l-42 -416h-100zM141 1608h182l-42 -416h-100z" />
<glyph unicode="#" horiz-adv-x="1824" d="M91 300l23 148h346l93 648h-346l20 148h348l62 434h148l-62 -434h496l62 434h148l-62 -434h348l-20 -148h-349l-93 -648h348l-23 -148h-347l-65 -456h-149l65 456h-495l-65 -456h-149l65 456h-347zM609 448h495l93 648h-495z" />
<glyph unicode="$" d="M132 204l125 124q41 -45 78.5 -79.5t73.5 -58.5t71.5 -38.5t72.5 -18.5v616q-38 16 -82 36.5t-87.5 48t-84 63t-71.5 82.5t-49.5 106t-18.5 134q0 93 35 163t91 118.5t126 75t140 31.5v131h84v-130q49 -3 93 -13t85.5 -31t82 -54t82.5 -81l-96 -127q-67 72 -124.5 113 t-122.5 49v-559q51 -24 102.5 -48t98.5 -52.5t88 -63.5t71.5 -81t47.5 -105t17 -135q0 -107 -36.5 -187t-96.5 -133.5t-136 -82t-155 -32.5v-166h-84v167q-121 9 -223 60.5t-198 157.5zM330 1226q0 -59 19.5 -102t51 -75.5t71 -57t80.5 -45.5v519q-39 -4 -78.5 -19.5 t-71.5 -44t-52 -72t-20 -103.5zM637 131q51 3 96.5 20.5t79.5 50t54 82t20 117.5q0 64 -22 112t-57.5 84t-80 62.5t-90.5 48.5v-577z" />
<glyph unicode="%" horiz-adv-x="1891" d="M174 1181q0 100 20 180.5t61.5 137t103.5 87t146 30.5q81 0 141.5 -29.5t100.5 -85.5t60 -137t20 -183q0 -217 -78.5 -330t-247.5 -113t-248 113t-79 330zM283 -22l1261 1685l83 -57l-1251 -1681zM321 1184q0 -58 5 -115t23.5 -102t54.5 -73t97 -28q62 0 98 28.5t54 74 t23 103.5t5 117q0 53 -5 106t-23 95.5t-53.5 69t-96.5 26.5q-60 0 -96 -26t-55 -68.5t-25 -97t-6 -110.5zM1076 418q0 100 20 181t61 137.5t103 87t146 30.5q82 0 142.5 -29.5t100.5 -85.5t60 -137t20 -184q0 -217 -78.5 -330t-247.5 -113q-170 0 -248.5 113t-78.5 330z M1223 417q0 -56 5 -112t23.5 -101t54.5 -73t97 -28q62 0 98 28.5t54 74t22.5 102t4.5 113.5q0 55 -5 109t-23 97t-53 69.5t-96 26.5q-60 0 -96 -26t-55 -69t-25 -98t-6 -113z" />
<glyph unicode="&#x26;" horiz-adv-x="1519" d="M89 404q0 98 27 171t72.5 129.5t104.5 100.5t123 83q-33 34 -64 75.5t-56 88t-40 97.5t-15 104q0 88 35.5 154.5t91.5 111t126 67t139 22.5q71 0 133 -19t108.5 -57.5t73 -96t26.5 -133.5q1 -84 -28 -149t-78 -116.5t-111.5 -93t-128.5 -77.5q50 -57 107 -120.5 t116 -127.5t117.5 -126.5t111.5 -117.5q31 45 55.5 84t44.5 75.5t37.5 73.5t35.5 78h190q-41 -93 -107 -194.5t-157 -214.5l298 -276h-265l-145 155q-41 -41 -94.5 -75t-116.5 -58t-134.5 -37.5t-147.5 -13.5q-105 0 -193.5 29.5t-153.5 85.5t-101.5 136.5t-36.5 181.5z M268 457q0 -66 21.5 -127t64 -107t107 -73.5t151.5 -27.5q46 0 97 9.5t99.5 27.5t91 44t70.5 58q-124 125 -241 260t-238 264q-36 -27 -75 -58t-72 -70t-54.5 -88t-21.5 -112zM408 1274q0 -42 12 -83.5t32 -81t46 -76.5t55 -71q54 32 100.5 66t81 71.5t54.5 80.5t20 94 q0 57 -15.5 97t-41 65t-59 36.5t-69.5 11.5q-44 0 -83.5 -15t-69 -42.5t-46.5 -66t-17 -86.5z" />
<glyph unicode="'" horiz-adv-x="478" d="M148 1608h182l-42 -416h-100z" />
<glyph unicode="(" horiz-adv-x="629" d="M83 808q0 234 109 464.5t327 452.5l59 -55q-84 -104 -145.5 -212.5t-101 -219t-58.5 -220.5t-19 -218q0 -219 78 -448t246 -462l-59 -49q-217 239 -326.5 485.5t-109.5 481.5z" />
<glyph unicode=")" horiz-adv-x="627" d="M49 -108q168 230 245.5 458t77.5 454q0 223 -77 438.5t-246 424.5l64 59q214 -223 321.5 -450.5t107.5 -463.5q0 -238 -106.5 -481t-322.5 -490z" />
<glyph unicode="*" horiz-adv-x="985" d="M105 1559l71 84l257 -226l-6 293h111l-6 -289l248 223l72 -85l-300 -245l298 -246l-69 -85l-249 222l6 -285h-111l7 289l-255 -228l-71 85l296 247z" />
<glyph unicode="+" horiz-adv-x="1235" d="M101 759v131h450v474h131v-474h452v-131h-452v-487h-131v487h-450z" />
<glyph unicode="," horiz-adv-x="502" d="M115 -244q35 22 65 44t52 46.5t34.5 52.5t12.5 64q0 11 -2 21.5t-5 22.5q-6 -5 -23 -11t-37 -6q-43 0 -65.5 29t-22.5 70q0 22 9 42t25 35t36.5 24t44.5 9q41 0 71 -16t49.5 -41t29 -54.5t9.5 -57.5q0 -69 -19 -120t-52 -90t-76 -68.5t-91 -55.5z" />
<glyph unicode="-" horiz-adv-x="748" d="M106 665l25 123h526l-25 -123h-526z" />
<glyph unicode="." horiz-adv-x="455" d="M119 102q0 44 31 81t82 37q49 0 79 -37t30 -81q0 -50 -33 -84t-76 -34q-45 0 -79 34t-34 84z" />
<glyph unicode="/" horiz-adv-x="1235" d="M75 -226l1008 1958l98 -52l-1004 -1959z" />
<glyph unicode="0" d="M97 789q0 186 29.5 337.5t91 258.5t157 165t226.5 58q129 0 222.5 -56.5t154 -162.5t90 -258t29.5 -342q0 -195 -28.5 -346.5t-89.5 -254.5t-156 -156.5t-227 -53.5t-226 53.5t-155 156.5t-89.5 254.5t-28.5 346.5zM277 787q0 -82 3.5 -163t15.5 -155.5t33.5 -138.5 t57 -111t87.5 -74t124 -27q73 0 125 27t87.5 75t56.5 113t32.5 140t15 158t3.5 166q0 77 -2.5 156t-13 152.5t-30.5 137.5t-55 112t-87.5 75.5t-126.5 27.5t-127 -26.5t-89.5 -73.5t-58 -111t-33 -138.5t-15 -156.5t-3.5 -165z" />
<glyph unicode="1" d="M237 1236l1 163l324 167h140v-1429h263v-137h-717v137h284v1254z" />
<glyph unicode="2" d="M144 0v116q0 90 51 172.5t132 159.5q49 46 99.5 89t101.5 85t100.5 85t96.5 90q39 39 71.5 78t56.5 80t37.5 85.5t13.5 94.5q0 72 -16.5 132.5t-53.5 104t-95 67.5t-140 24q-36 0 -73 -6t-73.5 -19t-71 -32t-64.5 -46l-95 110q38 31 77 56.5t85.5 44t103.5 28.5t131 10 q102 0 186 -31.5t145 -90t94.5 -143t33.5 -189.5q0 -63 -20.5 -124t-54 -117t-76 -105.5t-86.5 -90.5q-48 -45 -105 -92l-114 -92q-57 -47 -110 -94.5t-94 -96t-65.5 -98t-24.5 -99.5h728v-146h-912z" />
<glyph unicode="3" d="M116 80l84 128q10 -8 41 -23.5t74.5 -32t94.5 -28.5t101 -12q99 0 174.5 23t126 66t76 103.5t25.5 134.5q0 110 -36.5 181.5t-103.5 113.5t-161.5 58.5t-209.5 18.5v121q92 0 171.5 21t138 59t91.5 92.5t33 121.5q0 56 -18 101t-55.5 77t-95.5 49.5t-137 17.5 q-44 0 -89 -10.5t-85 -26t-72.5 -34.5t-51.5 -36l-81 117q29 20 67.5 42.5t87 41t107 31t128.5 12.5q97 0 182.5 -23t149.5 -69.5t101 -118.5t37 -169q0 -66 -23 -119.5t-61 -95.5t-87 -73t-100 -50q74 -21 138 -54t111.5 -85t74.5 -126t27 -177q0 -123 -44 -212.5 t-124.5 -147t-195 -85.5t-255.5 -28q-59 0 -115.5 11.5t-103.5 28t-83 34.5t-54 31z" />
<glyph unicode="4" d="M96 538l712 1029h146v-984h158l1 -145h-158l-1 -438h-169v438h-688zM270 582h515v742z" />
<glyph unicode="5" d="M162 78l74 141q13 -8 51.5 -24t87.5 -32t102 -28t97 -12q77 0 137.5 32.5t102.5 87t64 124.5t22 145q0 77 -18.5 147t-56.5 123t-96.5 84.5t-139.5 31.5q-90 0 -164 -24.5t-125 -77.5h-91l-1 771h771v-149h-611v-432q55 29 119 39.5t119 10.5q118 0 206.5 -38.5 t147 -108.5t87.5 -167.5t29 -214.5q0 -114 -38 -211.5t-106.5 -168.5t-164 -111t-211.5 -40q-72 0 -137.5 12t-118 28.5t-89 34t-49.5 27.5z" />
<glyph unicode="6" d="M89 651q0 229 35.5 407.5t112 300t197.5 185t292 63.5q80 0 157 -14t143 -40l-60 -152q-26 12 -58.5 23.5t-68.5 19.5t-73 13t-73 5q-96 0 -167 -38.5t-121 -111t-81 -177t-47 -236.5q24 24 61.5 44.5t82 35.5t92.5 24t93 9q117 0 209.5 -34.5t156.5 -99.5t97.5 -158.5 t33.5 -211.5q0 -122 -34 -220.5t-101.5 -168t-168 -107t-233.5 -37.5q-233 0 -355 169.5t-122 506.5zM260.5 626.5q0.5 -17.5 0.5 -31.5q-2 -129 25 -220t72.5 -148t106 -83t125.5 -26q70 0 133.5 24t110.5 72t75 120.5t28 168.5q0 85 -22 153t-65.5 114.5t-107.5 71.5 t-148 25q-111 0 -187.5 -29.5t-133.5 -104.5q-6 -17 -8.5 -35t-3.5 -36t-0.5 -35.5z" />
<glyph unicode="7" d="M98 1423v144h986v-113l-623 -1454h-167l624 1423h-820z" />
<glyph unicode="8" d="M85 433q0 75 24 137.5t66.5 115t101.5 96.5t130 82q-66 34 -117.5 68.5t-86.5 77t-53.5 95t-18.5 122.5q0 100 40.5 172.5t106.5 118.5t150.5 68t173.5 22q91 0 177 -23t152 -70.5t106 -121.5t40 -176q0 -69 -24 -126.5t-66.5 -103.5t-100 -80.5t-123.5 -57.5 q84 -35 152 -74t116 -88.5t74 -112t26 -143.5q0 -87 -20.5 -154t-57.5 -117t-87 -84t-108.5 -55.5t-123.5 -30.5t-131 -9q-105 0 -199 24t-165 77.5t-112.5 139.5t-41.5 211zM252 433q0 -74 27 -132.5t75 -98.5t113.5 -61t141.5 -21q75 0 140 18.5t113 57t75 96.5t27 136 q0 59 -21 105.5t-56.5 83t-81.5 64t-95.5 48.5t-98.5 36t-91 28q-56 -32 -105 -64t-85 -73t-57 -94.5t-21 -128.5zM293 1219q0 -67 32 -116t81 -85t107.5 -62t111.5 -47q67 30 120.5 65.5t91 73.5t58 78t20.5 80q0 69 -26 119t-69 82.5t-99.5 48t-118.5 15.5 q-58 0 -113.5 -14t-99 -44.5t-70 -78.5t-26.5 -115z" />
<glyph unicode="9" d="M89 1074q0 122 34 220.5t101.5 168t168 107t233.5 37.5q234 0 355.5 -169.5t121.5 -506.5q0 -230 -35 -408t-111.5 -299.5t-197.5 -185t-293 -63.5q-80 0 -156.5 14t-142.5 40l59 152q26 -12 58.5 -23.5t68.5 -19.5t73.5 -13t72.5 -5q96 0 167.5 38.5t121.5 111t81 177 t46 236.5q-24 -24 -61 -44.5t-81.5 -35.5t-92.5 -24t-93 -9q-117 0 -209.5 34.5t-156.5 99.5t-98 158.5t-34 211.5zM256 1079q0 -86 22 -153.5t65.5 -114t107 -71.5t147.5 -25q56 0 102.5 7t86 22.5t72 41t61.5 63.5q6 16 8.5 34.5t3 36.5t0 35.5t-0.5 31.5q2 129 -25 220 t-72.5 148t-106 83t-125.5 26q-70 0 -133 -24t-110 -72t-75 -120.5t-28 -168.5z" />
<glyph unicode=":" horiz-adv-x="510" d="M171 925q0 44 31 81t82 37q49 0 79 -37t30 -81q0 -50 -33 -84t-76 -34q-45 0 -79 34t-34 84zM171 102q0 44 31 81t82 37q49 0 79 -37t30 -81q0 -50 -33 -84t-76 -34q-45 0 -79 34t-34 84z" />
<glyph unicode=";" horiz-adv-x="510" d="M145 -244q35 22 65 44t52 46.5t34.5 52.5t12.5 64q0 11 -2 21.5t-5 22.5q-6 -5 -23 -11t-37 -6q-43 0 -65.5 29t-22.5 70q0 22 9 42t25 35t36.5 24t44.5 9q41 0 71 -16t49.5 -41t29 -54.5t9.5 -57.5q0 -69 -19 -120t-52 -90t-76 -68.5t-91 -55.5zM169 936q0 44 31 81 t82 37q49 0 79 -37t30 -81q0 -50 -33 -84t-76 -34q-45 0 -79 34t-34 84z" />
<glyph unicode="&#x3c;" horiz-adv-x="989" d="M81 744v22l704 786l113 -106l-614 -679v-14l612 -689l-108 -103z" />
<glyph unicode="=" horiz-adv-x="1255" d="M110 552v123h1033v-123h-1033zM112 877v122h1033v-122h-1033z" />
<glyph unicode="&#x3e;" horiz-adv-x="989" d="M92 1446l614 -679v-14l-612 -689l108 -103l707 783v22l-704 786z" />
<glyph unicode="?" horiz-adv-x="976" d="M91 1471q63 63 149 100t207 37q85 0 156 -26.5t123 -81.5t81 -138.5t29 -198.5q0 -76 -16 -135t-42 -106.5t-59.5 -85t-69.5 -68.5t-71 -58t-63 -53q-56 -60 -65.5 -107.5t-9.5 -166.5h-149q0 70 4.5 125.5t19.5 101.5t43.5 86.5t76.5 81.5q57 49 101.5 86t75 79t46 98.5 t15.5 143.5q0 56 -13.5 107t-43.5 89.5t-79.5 61.5t-121.5 23q-55 0 -101.5 -18.5t-75 -38t-52.5 -45.5zM250 102q0 25 9 46.5t24.5 37.5t36 25t43.5 9t43 -9t34.5 -25t23 -37.5t8.5 -46.5q0 -24 -8.5 -45.5t-23 -37.5t-34.5 -25.5t-43 -9.5t-43.5 9.5t-36 25.5t-24.5 37.5 t-9 45.5z" />
<glyph unicode="@" horiz-adv-x="2132" d="M144 602q0 164 39.5 302t108 250t162 197t202 142t227 86t237.5 29q109 0 216 -25.5t204 -76.5t179.5 -128.5t143 -182t94.5 -236.5t34 -292q0 -152 -31 -278t-98 -216.5t-172.5 -140.5t-253.5 -50q-54 0 -95.5 34.5t-54.5 110.5q-55 -38 -103 -65.5t-95.5 -45t-96 -26 t-104.5 -8.5q-66 0 -120 18.5t-92.5 53t-60 84t-21.5 110.5q0 79 26 138t73 101.5t111 71.5t141 48.5t163 32t176 22.5v136q0 40 -14 73.5t-40.5 57t-64 36.5t-84.5 13q-40 0 -78 -6.5t-78.5 -23t-86 -44t-100.5 -68.5l-77 111q56 41 107 69.5t100.5 46.5t100 26t106.5 8 q108 0 178 -23t111.5 -64t58 -97t16.5 -123v-554q0 -39 5 -64t16 -40t28.5 -21t41.5 -6q70 0 125 30t93.5 97t58.5 174.5t20 262.5q0 139 -27.5 253t-75.5 203.5t-114.5 155.5t-145 109.5t-165.5 64.5t-176 21q-99 0 -198 -25.5t-190 -75t-169.5 -123t-136.5 -169.5 t-91 -214.5t-33 -257.5q0 -105 15.5 -221t52 -229t97 -215.5t150.5 -180t212 -123.5t282 -46h3q47 0 101 7.5t108 22.5v-134q-18 -8 -44.5 -14t-56 -10t-59 -6t-52.5 -2q-125 0 -245.5 26t-228.5 83t-198.5 146.5t-156.5 216.5t-103 293t-37 377zM757 282q0 -83 48.5 -129 t129.5 -46q77 0 161 31.5t187 105.5v316q-114 -12 -210.5 -28.5t-166.5 -46.5t-109.5 -78.5t-39.5 -124.5z" />
<glyph unicode="A" horiz-adv-x="1277" d="M30 0l536 1567h165l520 -1567h-188l-167 534h-529l-168 -534h-169zM402 655h459l-225 716z" />
<glyph unicode="B" horiz-adv-x="1248" d="M150 0v1567h449q107 0 193 -25t146.5 -74.5t93 -122.5t32.5 -168q0 -54 -16.5 -106.5t-51 -97.5t-87 -80t-123.5 -54q64 -16 127 -46t112.5 -82t80.5 -130t31 -189q0 -75 -32 -145.5t-95 -125.5t-156 -88t-214 -33h-490zM320 130h269q96 0 166 22t115.5 60.5t68 91 t22.5 114.5q0 70 -22 131.5t-68.5 107t-119 71.5t-173.5 26h-258v-624zM320 884h204q38 0 80.5 5.5t83.5 18.5t79 34t66.5 51t45.5 70.5t17 92.5q0 71 -19.5 124t-65 88.5t-120.5 53t-186 17.5h-185v-555z" />
<glyph unicode="C" horiz-adv-x="1358" d="M130 797q0 337 167 574t471 237q177 0 266 -38t194 -139l-107 -112q-78 75 -154.5 110t-203.5 35q-205 0 -329.5 -190t-124.5 -451q0 -340 140.5 -522t318.5 -182q168 0 255 62t136 133l126 -88q-79 -107 -189.5 -179t-327.5 -72q-297 0 -467.5 229.5t-170.5 592.5z" />
<glyph unicode="D" horiz-adv-x="1358" d="M150 0v1567h335q135 0 242.5 -27t190 -76.5t141.5 -118.5t96.5 -153t55 -180.5t17.5 -199.5q0 -109 -17 -211.5t-54 -192.5t-96 -165t-142.5 -129t-194 -84t-250.5 -30h-324zM320 130h127q127 0 236 38t189.5 120.5t126 212.5t45.5 315q0 130 -31 243t-101.5 197 t-183.5 132.5t-277 48.5h-131v-1307z" />
<glyph unicode="E" horiz-adv-x="1107" d="M150 0v1567h837v-138h-667v-534h532v-131h-532v-626h697v-138h-867z" />
<glyph unicode="F" horiz-adv-x="1053" d="M150 0v1567h837v-138h-667v-534h531v-131h-531v-764h-170z" />
<glyph unicode="G" horiz-adv-x="1395" d="M130 796q0 107 19.5 209t58 192t95.5 165.5t131.5 130t166 85t200.5 30.5q80 0 139.5 -8.5t110.5 -29t100.5 -55t109.5 -85.5l-112 -122q-51 48 -94.5 78t-85.5 47t-86 23.5t-95 6.5q-105 0 -192.5 -49.5t-151 -135.5t-99 -203.5t-35.5 -252.5q0 -94 14 -182t41.5 -166 t67.5 -142.5t92 -111t115 -72.5t137 -26q54 0 99.5 2t86 7.5t78.5 14t78 21.5v586h170v-685q-90 -41 -218 -66.5t-295 -25.5q-111 0 -202 32t-163 89t-124.5 135t-87.5 169t-52 191.5t-17 203.5z" />
<glyph unicode="H" horiz-adv-x="1416" d="M150 0v1567h170v-702h776v702h170v-1567h-170v735h-776v-735h-170z" />
<glyph unicode="I" horiz-adv-x="470" d="M150 0v1567h170v-1567h-170z" />
<glyph unicode="J" horiz-adv-x="1064" d="M25 327l169 67q26 -77 56 -129.5t64.5 -85t74 -47t83.5 -14.5q51 0 99.5 15.5t87 51.5t62 95.5t23.5 147.5v1139h170v-1114q0 -112 -25.5 -200.5t-81 -150t-143 -94t-210.5 -32.5q-72 0 -136.5 17.5t-119.5 58t-99 108t-74 167.5z" />
<glyph unicode="K" horiz-adv-x="1246" d="M149 0v1567h170v-649l631 649h191l-689 -731l749 -836h-215l-667 741v-741h-170z" />
<glyph unicode="L" horiz-adv-x="1058" d="M150 0v1567h170v-1429h706v-138h-876z" />
<glyph unicode="M" horiz-adv-x="1588" d="M152 0v1567h176l469 -1392l463 1392h175v-1567h-170v1181l-390 -1181h-156l-397 1181v-1181h-170z" />
<glyph unicode="N" horiz-adv-x="1419" d="M149 1567h170l779 -1293v1293h170v-1567h-163l-786 1287v-1287h-169z" />
<glyph unicode="O" horiz-adv-x="1643" d="M130 795q0 179 53 328.5t147 257t221.5 167.5t276.5 60q152 0 278 -54.5t216.5 -156.5t140.5 -248.5t50 -330.5q0 -119 -22.5 -227.5t-65 -202.5t-103.5 -170t-138 -130t-168.5 -83.5t-194.5 -29.5q-166 0 -295 58.5t-217 166t-133.5 258.5t-45.5 337zM310 809 q0 -151 35 -277.5t100 -218t158 -143t209 -51.5t212 55t164.5 147.5t106.5 214t38 255.5q0 151 -33.5 275t-98 212.5t-159 137t-216.5 48.5q-108 0 -202 -46.5t-164 -132t-110 -206.5t-40 -270z" />
<glyph unicode="P" horiz-adv-x="1159" d="M150 0v1567h425q132 0 227 -33.5t156.5 -93.5t91 -143.5t29.5 -183.5q0 -35 -10 -82.5t-34.5 -98t-67 -99t-108 -87.5t-156.5 -63t-213 -24h-170v-659h-170zM320 788l165 1q92 0 168.5 22t132 65t86.5 105t31 143q0 72 -18 129.5t-62.5 98.5t-119.5 63t-189 22h-194v-649 z" />
<glyph unicode="Q" horiz-adv-x="1643" d="M130 795q0 119 24 225.5t68.5 197t107.5 163t140.5 123t167 77.5t188.5 27q153 0 279 -54t217 -156t141 -248.5t50 -330.5q0 -144 -32 -271.5t-91.5 -231.5t-144 -180.5t-188.5 -116.5q44 -97 129.5 -177t210.5 -149l-105 -136q-70 41 -134 89.5t-118 102t-96.5 111 t-69.5 117.5q-17 -1 -32 -1.5t-32 -0.5q-161 0 -287.5 58.5t-213.5 165.5t-133 258.5t-46 337.5zM310 809q0 -153 35.5 -280t101 -218t158 -141.5t206.5 -50.5q118 0 214 56.5t164.5 150.5t106 215t37.5 250q0 151 -33 275t-97.5 212.5t-159 137t-218.5 48.5 q-106 0 -200 -46.5t-164 -132t-110.5 -206.5t-40.5 -270z" />
<glyph unicode="R" horiz-adv-x="1212" d="M150 0v1567h425q132 0 227 -32.5t156.5 -91t90.5 -141.5t29 -183q0 -41 -13.5 -98.5t-50 -116.5t-99.5 -112.5t-162 -86.5l438 -705h-202l-404 672q-13 -2 -50 -3t-101 -1h-114v-668h-170zM320 1432l1 -635h162q93 0 170 21t132.5 62.5t86.5 102t31 139.5q0 73 -18 131 t-63 97.5t-121 60.5t-191 21h-190z" />
<glyph unicode="S" horiz-adv-x="1205" d="M73 204l130 121q58 -55 106.5 -93t95.5 -61.5t97.5 -34t111.5 -10.5q69 0 130 15.5t107.5 48.5t73.5 84.5t27 123.5t-23.5 119t-67.5 81t-107 61.5t-141 60.5q-46 20 -87 36q-131 53 -178 80t-91.5 62.5t-79 81.5t-55.5 104t-21 130q0 99 42 173t111 123t157 73.5 t180 24.5q72 0 133 -9t116.5 -30t107 -56t103.5 -88l-98 -134q-47 42 -90 74.5t-85.5 54t-87.5 33t-96 11.5q-55 0 -111.5 -13t-103 -41.5t-76 -74.5t-29.5 -113q0 -63 30 -109t76 -80.5t101.5 -60t107.5 -47.5q71 -30 149 -62q51 -21 100 -42t93 -46.5t80.5 -57t63.5 -74 t42 -97.5t15 -126q0 -112 -44.5 -194.5t-117.5 -136.5t-166.5 -80.5t-190.5 -26.5q-89 0 -163.5 12.5t-140 39.5t-123.5 69t-113 101z" />
<glyph unicode="T" horiz-adv-x="1206" d="M32 1423v144h1142v-144h-487v-1423h-170v1423h-485z" />
<glyph unicode="U" horiz-adv-x="1473" d="M150 513v1054h170v-1064q0 -93 23.5 -163t73 -117.5t127 -71t185.5 -23.5q120 0 201 23.5t131 71t71.5 118t21.5 164.5v1062h169v-1051q0 -131 -33 -231.5t-105 -168.5t-187 -103t-279 -35q-150 0 -257.5 32.5t-177 99t-102 167t-32.5 236.5z" />
<glyph unicode="V" horiz-adv-x="1235" d="M30 1567h184l403 -1322l407 1322h180l-514 -1567h-164z" />
<glyph unicode="W" horiz-adv-x="1780" d="M38 1567h183l284 -1291l328 1291h134l322 -1291l279 1291h180l-372 -1567h-174l-303 1274l-319 -1274h-163z" />
<glyph unicode="X" horiz-adv-x="1279" d="M32 0l512 830l-457 737h185l362 -593l384 593h177l-481 -710l533 -857h-185l-439 706l-415 -706h-176z" />
<glyph unicode="Y" d="M47 1567h184l364 -704l365 704h184l-465 -835v-732h-172v715z" />
<glyph unicode="Z" horiz-adv-x="1109" d="M59 0v137l815 1270h-790v160h950v-125l-806 -1282h816v-160h-985z" />
<glyph unicode="[" horiz-adv-x="574" d="M150 -159v1885h314v-79h-174v-1727h174v-79h-314z" />
<glyph unicode="\" horiz-adv-x="1245" d="M70 1676l106 56l1006 -1955l-106 -55z" />
<glyph unicode="]" horiz-adv-x="574" d="M110 -80h174v1726h-174v79h314v-1885h-314v80z" />
<glyph unicode="^" horiz-adv-x="1307" d="M67 759l579 919h31l570 -919h-186l-395 686h-9l-407 -686h-183z" />
<glyph unicode="_" horiz-adv-x="1023" d="M-5 -247h1033v-111h-1033v111z" />
<glyph unicode="`" horiz-adv-x="0" d="M-226 1494l127 117l304 -346l-59 -59z" />
<glyph unicode="a" horiz-adv-x="1171" d="M94 256q0 153 101 240t285 124.5t303 45.5v129q0 76 -51 127t-145 51q-85 0 -151 -22t-196 -119l-86 114q132 97 224 124t197 27q194 0 280 -75t86 -239v-545q0 -80 20.5 -106t70.5 -26q29 0 69 7l25 -73q-27 -26 -81.5 -42t-118.5 -16q-55 0 -92.5 36t-47.5 112 q-75 -54 -173.5 -101t-221.5 -47q-132 0 -214.5 74t-82.5 200zM265 286q0 -85 49.5 -128.5t132.5 -43.5q93 1 179.5 41t156.5 94v310q-214 -15 -366 -68.5t-152 -204.5z" />
<glyph unicode="b" horiz-adv-x="1166" d="M152 8v1559h158v-566q27 18 63 35.5t78 31t88.5 21.5t94.5 8q117 0 198.5 -44t132.5 -118t74 -172t23 -206q0 -146 -39 -254t-103 -179t-146.5 -106t-168.5 -35q-54 0 -102.5 0.5t-101 3t-113 7.5t-136.5 14zM310 157q51 -33 124 -43.5t170 -10.5q65 0 118.5 38t92 99.5 t59.5 140t21 158.5q0 81 -15 157.5t-50.5 135.5t-93 94.5t-141.5 35.5q-41 0 -83.5 -7t-80.5 -19t-70 -27.5t-51 -32.5v-719z" />
<glyph unicode="c" horiz-adv-x="1075" d="M104 544q0 111 32 211.5t94.5 176.5t154 120.5t212.5 44.5q61 0 110 -7t92.5 -24t82 -46t75.5 -72l-103 -94q-57 67 -114 97t-150 30q-80 0 -140 -34.5t-100 -93t-60 -134.5t-20 -159q0 -88 23 -170.5t66 -146.5t102.5 -102.5t133.5 -38.5q116 0 179.5 40.5t113.5 111.5 l111 -76q-39 -57 -82.5 -94.5t-93 -59.5t-106 -31t-122.5 -9q-84 0 -153.5 21.5t-124 60t-94.5 91t-66.5 114.5t-39.5 131.5t-13 141.5z" />
<glyph unicode="d" horiz-adv-x="1222" d="M114 530q0 105 30.5 206.5t90.5 182t147.5 129.5t201.5 49q83 0 156.5 -16t141.5 -51v537h158v-1226q0 -48 2.5 -97.5t8.5 -94.5t14.5 -83.5t20.5 -65.5h-148q-13 17 -24 40.5t-18 49.5q-52 -33 -95 -53.5t-82 -32.5t-77.5 -16.5t-80.5 -4.5q-111 0 -194.5 47t-140 123.5 t-84.5 175t-28 201.5zM280 540q0 -69 17 -143.5t54 -136.5t95 -102t140 -40q39 0 76.5 2.5t73.5 12.5t72 28.5t74 51.5v680q-55 38 -125.5 52t-161.5 14q-77 0 -136 -36t-98.5 -95.5t-60 -134.5t-20.5 -153z" />
<glyph unicode="e" horiz-adv-x="1132" d="M112 557q0 108 27 207t83.5 175t143 121t206.5 45q107 0 184 -28.5t128 -81t79 -127.5t36 -169q4 -47 4 -98q0 -25 -1 -51h-724q0 -86 20.5 -165t58.5 -139t92 -96t123 -36q49 0 93 7.5t84.5 27t79.5 52.5t77 84l114 -92q-52 -66 -104 -107t-106 -64t-110.5 -31.5 t-117.5 -8.5q-123 0 -212 47.5t-146 127t-84.5 183.5t-27.5 217zM280 658h561q-3 59 -17.5 117t-45.5 103.5t-82 74t-126 28.5q-71 0 -124 -28.5t-88.5 -74.5t-55 -104t-22.5 -116z" />
<glyph unicode="f" horiz-adv-x="682" d="M44 948v132h146v84q0 111 28 190t77.5 129.5t116.5 74t145 23.5q27 0 55.5 -3t56 -9.5t52.5 -15.5t44 -21l-68 -136q-15 9 -33.5 18.5t-38 17.5t-38.5 13t-33 5q-121 0 -167 -60q-26 -32 -32.5 -107t-6.5 -203h254l-15 -132h-239v-948h-158v948h-146z" />
<glyph unicode="g" horiz-adv-x="1162" d="M96 -220q0 49 12.5 93t35 80.5t54 65.5t68.5 49q-21 12 -45 25t-44.5 31.5t-34 43.5t-13.5 61q0 28 15.5 55t42 50.5t61.5 43.5t74 35q-47 31 -78 64t-49 70.5t-25.5 80.5t-7.5 95q0 89 30 158.5t85.5 117.5t134 73t175.5 25q42 0 74.5 -4.5t62 -14t58.5 -23.5t64 -33 q83 28 151.5 40.5t134.5 12.5l-18 -130l-67 2h-13q-33 0 -61 -4q-34 -5 -67 -15q25 -39 42.5 -88.5t17.5 -114.5q0 -94 -34.5 -165t-90 -119t-125 -72.5t-139.5 -24.5q-40 0 -77.5 4t-85.5 10q-29 -9 -55.5 -21t-47 -26.5t-32.5 -30.5t-12 -34t18 -31.5t48 -24t68.5 -18 t80 -13t82.5 -11t75 -10.5q48 -8 99 -15.5t100 -20.5t92.5 -33t76.5 -52t52.5 -78.5t19.5 -112.5q0 -60 -25 -105.5t-68 -78t-99.5 -53.5t-119.5 -33t-128.5 -17t-125.5 -5q-210 0 -313.5 63.5t-103.5 182.5zM244 -184q0 -41 24 -71.5t64 -50t92 -29t107 -9.5 q57 0 123.5 8.5t124 28.5t96 52.5t38.5 79.5q0 46 -21.5 73t-59 43t-88.5 24.5t-111 16.5q-47 6 -83 10.5t-67.5 8.5t-60 8t-59.5 10q-36 -14 -59.5 -36t-36.5 -49t-18 -57.5t-5 -60.5zM326 726q0 -60 11.5 -109t40 -83.5t76 -53.5t119.5 -19q106 0 165.5 71.5t59.5 203.5 q0 54 -16 99.5t-45.5 78.5t-70.5 51.5t-91 18.5q-122 0 -185.5 -65t-63.5 -193z" />
<glyph unicode="h" horiz-adv-x="1156" d="M152 0v1567h158v-570q44 24 85.5 42.5t83 31.5t84.5 19.5t90 6.5q81 0 146 -24t110.5 -70t70 -114t24.5 -155v-734h-158l1 725q0 115 -57 179t-178 64q-38 0 -73 -5.5t-71 -16.5t-74.5 -27.5t-83.5 -37.5v-881h-158z" />
<glyph unicode="i" horiz-adv-x="492" d="M152 1434q0 40 27.5 66t67.5 26q42 0 67.5 -28t25.5 -66q0 -39 -25.5 -68t-67.5 -29q-20 0 -37.5 8.5t-30 22.5t-20 31.5t-7.5 36.5zM168 0v1080h158v-1080h-158z" />
<glyph unicode="j" horiz-adv-x="475" d="M-105 -367l14 139q8 -1 20.5 -1.5t22.5 -0.5q46 0 82.5 15.5t62 41.5t39 59.5t13.5 69.5v1124h158v-1140q0 -84 -32.5 -142t-80.5 -100q-21 -18 -48.5 -31t-58 -21t-62 -12t-60.5 -4h-15q-9 0 -19 0.5t-19.5 1t-16.5 1.5zM135 1434q0 40 28 66t67 26q21 0 38 -7.5 t29.5 -20.5t19 -30t6.5 -36q0 -20 -7 -37.5t-19 -30.5t-29 -21t-38 -8q-20 0 -37.5 8.5t-30 22.5t-20 31.5t-7.5 36.5z" />
<glyph unicode="k" horiz-adv-x="1025" d="M146 0v1568h158v-896l449 408h192l-431 -399l451 -681h-187l-377 588l-97 -82v-506h-158z" />
<glyph unicode="l" horiz-adv-x="507" d="M150 183v1384h158v-1346q0 -33 6.5 -53.5t19.5 -32t33.5 -15.5t48.5 -4q8 0 23.5 1t31.5 3l23 -92q-18 -8 -40 -16t-46 -14.5t-48 -10.5t-45 -4q-30 0 -59.5 9t-53 31.5t-38 61.5t-14.5 98z" />
<glyph unicode="m" horiz-adv-x="1727" d="M152 1084h148q3 -15 6.5 -40.5t5.5 -45.5q30 16 67.5 34t80.5 32t90 23.5t95 9.5q82 0 144.5 -26t102.5 -80q55 25 104.5 45t96 33.5t92 20.5t93.5 7q76 0 132.5 -25.5t93 -70t54.5 -105t18 -129.5v-767h-158v752q0 55 -14.5 95.5t-40.5 67.5t-61 40t-75 13 q-62 0 -138.5 -17t-150.5 -55q10 -28 14.5 -62.5t4.5 -69.5v-764h-158v750q0 112 -49.5 165t-143.5 53q-76 0 -150 -23.5t-138 -56.5v-888h-158v954q0 38 -2.5 73.5t-5.5 56.5z" />
<glyph unicode="n" horiz-adv-x="1168" d="M152 1084h153q2 -10 4 -23.5t3.5 -27.5t2.5 -27t2 -22q37 23 79.5 43.5t89.5 36t97 24.5t101 9q79 0 141 -24t104.5 -68t64.5 -107.5t22 -142.5v-755h-158v742q0 57 -16 99.5t-42.5 70.5t-62 42t-74.5 14q-44 0 -90 -7t-90.5 -20.5t-86 -32t-77.5 -40.5v-868h-158v941 q0 37 -2 76.5t-7 66.5z" />
<glyph unicode="o" horiz-adv-x="1242" d="M120 555q0 232 139 387t370 155q236 0 364.5 -161t128.5 -401q0 -228 -135 -390.5t-353 -162.5q-254 0 -384 157t-130 416zM285 536q0 -166 63.5 -258t128 -130.5t150.5 -38.5q83 0 145 39t123.5 141t61.5 277q0 153 -84.5 278.5t-247.5 125.5t-251.5 -120t-88.5 -314z " />
<glyph unicode="p" horiz-adv-x="1162" d="M137 1076h151q3 -19 6 -37t6 -37q41 19 81 36t80 30t80.5 21t82.5 8q116 0 197 -45.5t132 -121.5t74 -176t23 -209q0 -110 -29 -212t-85 -180t-137.5 -125t-186.5 -47q-43 0 -79.5 4.5t-72.5 14.5t-73.5 27t-82.5 41v-521h-158v1374q0 7 -0.5 27t-2 44t-3 47.5t-3.5 36.5 zM304 210q38 -33 75 -51.5t74.5 -27.5t75.5 -11t79 -2q73 0 125 37t85.5 97.5t49.5 138t16 159.5q0 87 -17 162t-53 130.5t-92 87.5t-134 32q-74 0 -141 -17t-143 -59v-676z" />
<glyph unicode="q" horiz-adv-x="1174" d="M109 539q0 126 35 229t96.5 176t145 113t179.5 40t170 -21.5t142 -61.5l11 62h156q-5 -26 -8.5 -52.5t-3.5 -43.5v-1433h-158v535q-47 -25 -85.5 -43.5t-75 -30.5t-74 -17.5t-80.5 -5.5q-110 0 -194 43.5t-141 118.5t-86 176t-29 216zM274 550q0 -82 19.5 -159t57.5 -137 t93.5 -96.5t126.5 -36.5q49 0 89 3t76 12.5t69.5 28.5t68.5 51v680q-21 14 -55 25.5t-73.5 20t-81.5 13t-79 4.5q-78 0 -136.5 -32.5t-97.5 -88t-58 -130t-19 -158.5z" />
<glyph unicode="r" horiz-adv-x="793" d="M143 1084h152q4 -23 7 -50t3 -56l1 -81q32 38 76 75t95.5 65.5t108.5 46t116 17.5q13 0 27.5 -2t21.5 -4l-34 -165q-17 5 -35 6.5t-41 1.5q-59 0 -111 -15.5t-95 -41t-75.5 -58.5t-52.5 -67v-756h-158v960q0 40 -1 70t-5 54z" />
<glyph unicode="s" horiz-adv-x="992" d="M70 147l105 114q43 -45 81.5 -74.5t76 -47.5t77 -25.5t86.5 -7.5q51 0 96.5 11t80 32.5t55 54t20.5 75.5q0 40 -16.5 69t-43 49t-58.5 34t-63 24q-41 14 -81 27.5t-80 27.5q-29 9 -63 21.5t-68.5 29.5t-67 40.5t-57.5 54t-40 70t-15 90.5q0 72 33 124.5t87 87.5t123 52 t141 17q60 0 111.5 -6.5t97 -21.5t86 -39t78.5 -60l-91 -109q-68 59 -133 87t-147 28q-42 0 -84 -8t-75.5 -26t-54.5 -47t-21 -70q0 -38 18 -65.5t47 -48.5t67 -36.5t77 -27.5q45 -14 89 -29t89 -29q48 -17 95.5 -39t85.5 -56t61.5 -83.5t23.5 -122.5q0 -76 -34 -133.5 t-90 -95.5t-128.5 -57.5t-149.5 -19.5q-70 0 -129 10t-111 30.5t-98 51.5t-89 73z" />
<glyph unicode="t" horiz-adv-x="733" d="M63 942v137h156v274h158v-274h263l-17 -137h-246v-623q0 -39 6 -76t20.5 -65.5t38.5 -46t61 -17.5q12 0 31.5 2t42 6t45 8.5t39.5 9.5l12 -137q-20 -4 -47 -7.5t-53.5 -6.5t-49.5 -4.5t-35 -1.5q-79 0 -131 20t-82.5 58.5t-43 93t-12.5 123.5v664h-156z" />
<glyph unicode="u" horiz-adv-x="1169" d="M135 327v753h158v-741q0 -54 17 -94.5t44.5 -67t63 -40t72.5 -13.5q103 0 184 28.5t156 85.5v842h158v-939q0 -65 14 -141h-161q-2 9 -3.5 22.5t-3.5 29.5t-3.5 32t-1.5 28q-48 -32 -93 -56t-89.5 -40t-90.5 -24.5t-97 -8.5q-85 0 -146 26.5t-100.5 73t-58.5 109 t-19 135.5z" />
<glyph unicode="v" horiz-adv-x="983" d="M24 1080h170l289 -920l278 920h170l-374 -1080h-155z" />
<glyph unicode="w" horiz-adv-x="1373" d="M26 1080h170l218 -838l219 838h102l233 -835l209 835h170l-325 -1080h-111l-226 851l-217 -851h-111z" />
<glyph unicode="x" horiz-adv-x="980" d="M23 0l377 555l-340 525h171l243 -421l258 421h170l-353 -519l364 -561h-171l-271 452l-277 -452h-171z" />
<glyph unicode="y" horiz-adv-x="1039" d="M-29 -444l29 151q61 -25 128 -25q63 0 106 19.5t75 56.5t56.5 91t50.5 123q15 35 27 99l-406 1009h170l327 -864l284 864h171l-431 -1162q-36 -93 -74 -163t-84.5 -118.5t-110 -74t-156.5 -25.5q-73 0 -162 19z" />
<glyph unicode="z" horiz-adv-x="985" d="M69 0v128l644 805h-606v147h785v-124l-634 -809h648v-147h-837z" />
<glyph unicode="{" horiz-adv-x="682" d="M50 602v124h66q36 0 59 20.5t35.5 55.5t17 81.5t4.5 98.5v347q0 67 23 122.5t57.5 95t75 61t75.5 21.5h159v-119h-106q-32 0 -55 -18.5t-37.5 -48t-21.5 -66t-7 -72.5v-357q-4 -70 -19.5 -119t-37.5 -82t-46 -51.5t-44 -26.5v-10q20 -7 44 -28t46 -58.5t37.5 -92 t19.5 -128.5v-328q0 -37 7.5 -74.5t22 -68t36.5 -49.5t51 -19h110v-119h-159q-44 0 -85.5 22t-73.5 62t-52 95.5t-20 123.5v336q0 54 -4.5 102.5t-17 85.5t-35 59t-59.5 22h-66z" />
<glyph unicode="|" horiz-adv-x="1037" d="M445 -452v2030h131v-2030h-131z" />
<glyph unicode="}" horiz-adv-x="682" d="M60 -187h110q29 0 51 19t36.5 49.5t22 68t7.5 74.5v328q4 74 19.5 128.5t37.5 92t46 58.5t44 28v10q-20 8 -44 26.5t-46 51.5t-37.5 82t-19.5 119v357q0 36 -7 72.5t-21.5 66t-37.5 48t-55 18.5h-106v119h159q35 0 75.5 -21.5t75 -61t57.5 -95t23 -122.5v-347 q0 -52 4.5 -98.5t17 -81.5t35.5 -55.5t59 -20.5h66v-124h-66q-37 0 -59.5 -22t-35 -59t-17 -85.5t-4.5 -102.5v-336q0 -68 -20 -123.5t-52 -95.5t-74 -62t-85 -22h-159v119z" />
<glyph unicode="~" horiz-adv-x="1244" d="M72 525q19 38 50.5 77t73.5 70.5t92.5 51t109.5 19.5q67 0 126 -21t114 -46.5t109 -46.5t112 -21q63 0 110 24t82 62q13 13 23 33l97 -82q-19 -37 -49 -72.5t-70 -63t-89.5 -44t-108.5 -16.5q-42 0 -81.5 10t-77 25t-74.5 33t-74 33t-75 25t-78 10q-58 0 -102.5 -23 t-78.5 -62q-10 -11 -15.5 -21.5t-13.5 -30.5z" />
<glyph unicode="&#xa1;" horiz-adv-x="493" d="M136 977q0 25 9 47t24 38t35.5 25.5t43.5 9.5t44 -9.5t36.5 -25.5t25 -38t9.5 -47t-9.5 -47t-25 -38t-36.5 -25.5t-44 -9.5t-43.5 9.5t-35.5 25.5t-24 38t-9 47zM143 -482l37 1157h142l23 -1157h-202z" />
<glyph unicode="&#xa2;" horiz-adv-x="886" d="M90 611q0 99 28.5 188.5t84 157t137.5 107t189 39.5h8l16 132l92 -10l-16 -128q1 -2 3 -2q48 -6 89.5 -24.5t78.5 -49t71 -77.5l-113 -104q-34 40 -60.5 65t-54.5 39q-15 8 -31 14l-86 -704q39 -3 72.5 2.5t62.5 23.5t57 48t58 78l124 -95q-35 -57 -75.5 -95.5 t-86.5 -60.5t-98 -32t-114 -10h-18l-17 -145l-92 13l17 144q-12 3 -26 8q-61 19 -109.5 53t-84.5 81t-59 102t-35 117t-12 125zM263 626q0 -73 18.5 -140.5t53.5 -119.5t63 -71t36 -24l86 698q-64 -1 -112 -28q-48 -29 -80.5 -76t-48.5 -109t-16 -130z" />
<glyph unicode="&#xa3;" horiz-adv-x="1152" d="M150 690v108h231q-18 49 -35.5 99t-31.5 101t-22.5 102.5t-8.5 101.5q0 86 33 160.5t90 129t134 85.5t166 31q84 0 159 -20.5t138 -62.5l-84 -139q-33 23 -58 38t-49 24t-50 13t-61 4q-57 0 -104 -15t-80 -46.5t-51.5 -79t-18.5 -111.5q0 -48 10 -100t25.5 -105.5 t34 -106.5t35.5 -103h327v-108h-306q5 -22 6.5 -50t1.5 -50q-2 -69 -19 -126.5t-45 -109.5t-64.5 -102t-77.5 -105h629v-147h-833l-8 94q44 58 87.5 113.5t78.5 112.5t57 117t23 128q1 31 -1.5 64t-9.5 61h-248z" />
<glyph unicode="&#xa4;" horiz-adv-x="1370" d="M90 1176l172 -176q-58 -72 -85.5 -156.5t-27.5 -178.5q0 -103 34 -193.5t95 -162.5l-181 -182l70 -70l181 182q69 -57 154 -88.5t180 -31.5q97 0 183.5 33t155.5 92l178 -184l77 66l-185 190q58 71 91 160t33 189q0 94 -29.5 178.5t-82.5 153.5l177 178l-70 70l-174 -174 q-71 65 -161 102t-193 37q-49 0 -96.5 -10.5t-92.5 -29t-86 -44t-75 -54.5l-159 174zM312 670q0 78 28 148t78 123.5t117.5 85t147.5 31.5q78 0 146 -32t117.5 -85.5t77.5 -123.5t28 -147q0 -78 -27.5 -150t-77 -127t-117.5 -88.5t-147 -33.5q-80 0 -148 33t-117.5 88.5 t-77.5 127.5t-28 150z" />
<glyph unicode="&#xa5;" d="M47 1567h184l364 -686l365 686h184l-450 -796h364v-111h-379v-150l379 1v-108h-379v-403h-172v403h-361v108h361v149h-361v111h346z" />
<glyph unicode="&#xa6;" horiz-adv-x="1037" d="M445 395h131v-847h-131v847zM445 816v762h131v-762h-131z" />
<glyph unicode="&#xa7;" horiz-adv-x="1133" d="M73 641q0 99 42 185.5t137 149.5q-46 23 -77.5 51.5t-51 62.5t-28.5 72.5t-9 80.5q0 101 40 170.5t107.5 113t156.5 62.5t188 19q93 0 160.5 -16t119.5 -42t91 -58.5t75 -66.5l-97 -133q-38 34 -77.5 65t-83 55t-91 38t-99.5 14q-50 0 -103.5 -10.5t-98 -34t-73.5 -60 t-29 -88.5q0 -28 7 -55t22.5 -50t41 -41.5t63.5 -30.5q140 -33 264 -67q89 -26 161 -61.5t123 -80t78.5 -98t27.5 -114.5q0 -54 -14.5 -99.5t-41 -84.5t-64.5 -71.5t-84 -61.5q48 -24 81 -57.5t52.5 -72t28 -80.5t8.5 -83q0 -100 -44 -170t-117 -114.5t-167.5 -64.5 t-195.5 -20q-46 0 -101.5 5.5t-112 18.5t-109.5 34.5t-93 52.5l98 146q27 -17 61.5 -37t75.5 -37t89 -28t103 -11q69 0 125.5 11.5t97 35.5t63 61.5t22.5 90.5q0 60 -13 98t-40 63t-69.5 41t-101.5 31q-33 8 -70 16.5t-75 17.5q-88 20 -158 44.5t-119 62.5t-75.5 93.5 t-26.5 136.5zM253 685q0 -58 16 -92.5t44 -55.5t67 -33t86 -25q120 -34 271 -69q29 24 55 47.5t45.5 49.5t31 55.5t11.5 65.5q0 52 -21.5 92.5t-57.5 70.5t-82.5 50.5t-95.5 32.5q-114 29 -225 55q-29 -17 -55 -41t-46 -54t-32 -67.5t-12 -81.5z" />
<glyph unicode="&#xa8;" horiz-adv-x="0" d="M-322 1305q0 40 27.5 66t67.5 26q41 0 67 -28t26 -66q0 -20 -7 -37.5t-19 -30.5t-29 -21t-38 -8q-20 0 -37.5 8.5t-30 22.5t-20 31.5t-7.5 36.5zM134 1305q0 40 27.5 66t67.5 26q41 0 67 -28t26 -66q0 -20 -7 -37.5t-19 -30.5t-29 -21t-38 -8q-20 0 -37.5 8.5t-30 22.5 t-20 31.5t-7.5 36.5z" />
<glyph unicode="&#xa9;" horiz-adv-x="1794" d="M104 789q0 113 28.5 217.5t80 195.5t123.5 166t160 128t189.5 82.5t210.5 29.5q110 0 211.5 -29.5t189.5 -82.5t160.5 -128t124 -166t80 -195.5t28.5 -217.5t-28.5 -217.5t-80 -195.5t-124 -166t-160.5 -128t-189.5 -82.5t-211.5 -29.5q-109 0 -210.5 29.5t-189.5 82.5 t-160 128t-123.5 166t-80 195.5t-28.5 217.5zM235 789q0 -96 23.5 -186t67 -168.5t103.5 -143t133.5 -110.5t158 -71.5t175.5 -25.5q92 0 177 25.5t158.5 71.5t134.5 110.5t104 143t67 168t24 186.5t-24 187t-67 168.5t-104 143t-134.5 110.5t-158.5 71t-177 25 q-91 0 -175.5 -25t-158 -71t-133.5 -110.5t-103.5 -143t-67 -168.5t-23.5 -187zM450 801q0 128 34 229.5t94 172t142 107.5t178 37q41 0 80 -5t77 -18t76 -35.5t77 -56.5l-86 -111q-27 22 -49 39t-46.5 28.5t-54 17t-70.5 5.5q-52 0 -103.5 -21.5t-93 -68.5t-67 -120.5 t-25.5 -177.5q0 -97 28.5 -176t73.5 -135.5t100 -87.5t108 -31q48 0 81.5 7t59 21.5t47 35.5t45.5 49l114 -82q-38 -53 -75.5 -86t-79 -52t-88.5 -26t-104 -7q-95 0 -180.5 43t-150.5 117t-103.5 174t-38.5 214z" />
<glyph unicode="&#xaa;" horiz-adv-x="983" d="M88 873q0 66 21.5 114.5t60 83.5t91.5 58.5t116 39.5t133.5 26t144.5 18v105q0 69 -45 105.5t-116 36.5q-34 0 -65.5 -5t-65.5 -18t-71.5 -35.5t-83.5 -57.5l-64 102q47 33 88.5 56.5t82 37.5t82 20.5t87.5 6.5q90 0 150 -18.5t96.5 -52.5t51.5 -82t15 -106v-449 q0 -31 4 -51t12.5 -31t22.5 -15.5t35 -4.5q8 0 24 1t33 4l21 -64q-23 -21 -67.5 -34.5t-97.5 -13.5q-45 0 -81.5 30t-44.5 92q-50 -35 -91.5 -58.5t-80 -37.5t-76 -20t-78.5 -6q-55 0 -100 15t-77 44t-49.5 70t-17.5 94zM239 898q0 -69 40.5 -104.5t109.5 -35.5q31 0 60 6.5 t60.5 21t67 36.5t78.5 53v240q-99 -10 -176.5 -22t-130.5 -34.5t-81 -60.5t-28 -100z" />
<glyph unicode="&#xab;" horiz-adv-x="1221" d="M567 533v12l391 437l88 -75l-289 -361v-8l279 -360l-83 -75zM81 533v12l391 437l88 -75l-289 -361v-8l279 -360l-83 -75z" />
<glyph unicode="&#xac;" horiz-adv-x="1379" d="M87 657h1048v-538h130v669h-1178v-131z" />
<glyph unicode="&#xad;" horiz-adv-x="748" d="M106 665l25 123h526l-25 -123h-526z" />
<glyph unicode="&#xae;" horiz-adv-x="1794" d="M104 789q0 113 28.5 217.5t80 195.5t123.5 166t160 128t189.5 82.5t210.5 29.5q110 0 211.5 -29.5t189.5 -82.5t160.5 -128t124 -166t80 -195.5t28.5 -217.5t-28.5 -217.5t-80 -195.5t-124 -166t-160.5 -128t-189.5 -82.5t-211.5 -29.5q-109 0 -210.5 29.5t-189.5 82.5 t-160 128t-123.5 166t-80 195.5t-28.5 217.5zM235 789q0 -96 23.5 -186t67 -168.5t103.5 -143t133.5 -110.5t158 -71.5t175.5 -25.5q92 0 177 25.5t158.5 71.5t134.5 110.5t104 143t67 168t24 186.5t-24 187t-67 168.5t-104 143t-134.5 110.5t-158.5 71t-177 25 q-91 0 -175.5 -25t-158 -71t-133.5 -110.5t-103.5 -143t-67 -168.5t-23.5 -187zM578 264v1060h286q81 0 148.5 -15t117 -51t77 -96t27.5 -150q0 -28 -9.5 -67.5t-32.5 -79.5t-62.5 -74.5t-99.5 -52.5l239 -474h-162l-215 451q-9 -1 -19 -1.5t-28 -1t-47.5 0t-77.5 0.5v-449 h-142zM719 826q28 0 56 -0.5t56 -0.5q64 0 112.5 10.5t81 33.5t49 61t16.5 92q0 50 -12.5 85.5t-43.5 58t-83.5 32.5t-131.5 10h-100v-382z" />
<glyph unicode="&#xaf;" horiz-adv-x="0" d="M-272 1206v125h545v-125h-545z" />
<glyph unicode="&#xb0;" horiz-adv-x="651" d="M82 1447q0 51 19 95.5t52 77.5t77.5 52t94.5 19t94.5 -19t77.5 -52t52.5 -77.5t19.5 -95.5q0 -50 -19.5 -94.5t-52.5 -77.5t-77.5 -52t-94.5 -19t-94.5 19t-77.5 52t-52 77.5t-19 94.5zM189 1450q0 -33 10.5 -62.5t29 -51t43 -34t52.5 -12.5q31 0 56.5 12.5t43.5 34 t28 51t10 62.5q0 32 -10 60.5t-28 49.5t-43.5 33t-56.5 12q-28 0 -52.5 -12t-43 -33t-29 -49.5t-10.5 -60.5z" />
<glyph unicode="&#xb1;" horiz-adv-x="1235" d="M101 781v131h450v474h131v-474h452v-131h-452v-487h-131v487h-450zM165 35v130h912v-130h-912z" />
<glyph unicode="&#xb2;" horiz-adv-x="890" d="M93 672v100q21 61 54 103.5t76 75.5t93.5 60t107.5 58q52 28 90 51t63.5 47.5t38 54.5t12.5 73q0 35 -9 64.5t-31 50.5t-59 32.5t-94 11.5q-24 0 -53 -8t-58.5 -23t-57.5 -36.5t-50 -48.5l-89 110q33 30 68.5 54.5t75.5 42t85.5 27t98.5 9.5q73 0 135 -18.5t107.5 -52.5 t71 -81.5t25.5 -105.5q0 -78 -28.5 -135t-72.5 -98t-96.5 -70t-100.5 -52q-46 -22 -84.5 -42.5t-66.5 -40.5t-43.5 -39t-15.5 -38h516v-136h-709z" />
<glyph unicode="&#xb3;" horiz-adv-x="898" d="M100 744l79 120q15 -12 37.5 -25.5t51.5 -25t63 -18.5t72 -7q61 0 109 8.5t81.5 27t51 47t17.5 68.5q0 55 -22.5 84.5t-64.5 42.5t-101 15t-132 3l1 116q63 0 115.5 7.5t91 25t60 45t21.5 67.5q0 60 -55 85.5t-153 25.5q-72 0 -124.5 -23t-94.5 -60l-89 110 q24 20 53.5 37.5t67.5 31t85.5 21.5t107.5 8q77 0 144 -14t117 -41.5t79 -68t29 -92.5q0 -47 -12.5 -79.5t-36.5 -56t-59.5 -40t-82.5 -31.5q50 -8 92 -25t72 -44.5t46.5 -67t16.5 -91.5q0 -74 -28 -125.5t-84.5 -83.5t-140.5 -46.5t-195 -14.5q-54 0 -99 8t-81 20.5 t-62.5 27.5t-43.5 28z" />
<glyph unicode="&#xb4;" horiz-adv-x="0" d="M-204 1267l307 345l116 -125l-362 -280z" />
<glyph unicode="&#xb5;" horiz-adv-x="1169" d="M135 -453v1533h158v-752q1 -47 17.5 -85.5t44 -65t63 -40t72.5 -13.5q103 0 184 28.5t156 85.5v842h158v-939q0 -65 14 -141h-161q-2 9 -3.5 22.5t-3.5 29.5t-3.5 32t-1.5 28q-48 -32 -93 -56t-89.5 -40t-90.5 -24.5t-97 -8.5q-85 0 -118 16t-48 20v-472h-158z" />
<glyph unicode="&#xb6;" horiz-adv-x="1133" d="M108 1166q0 102 29.5 177t93 125t164.5 74.5t244 24.5q25 0 63 -3t69 -6v-1558h-114v758h-126q-102 0 -181 28t-132.5 80.5t-81.5 128t-28 171.5zM864 0h112v1567l-112 -8v-1559z" />
<glyph unicode="&#xb7;" horiz-adv-x="457" d="M119 690q0 44 31 81t82 37q49 0 79 -37t30 -81q0 -50 -33 -84t-76 -34q-45 0 -79 34t-34 84z" />
<glyph unicode="&#xb8;" horiz-adv-x="0" d="M-225 -450l72 103q34 -29 58 -45t52 -16q20 0 39.5 8.5t35 24t25 37.5t9.5 49q0 21 -7 45t-23.5 45t-43.5 37t-68 21l32 143h107l-29 -82q35 -10 65.5 -27t53 -42.5t35.5 -59.5t13 -79q0 -47 -17.5 -89t-49 -73.5t-76 -50t-98.5 -18.5q-29 0 -52.5 4t-44.5 12t-42.5 21.5 t-45.5 31.5z" />
<glyph unicode="&#xb9;" horiz-adv-x="716" d="M98 1273v169l230 139h128v-763h170v-129h-526v129h192v583z" />
<glyph unicode="&#xba;" horiz-adv-x="1075" d="M114 1154q0 86 27 167.5t80 145.5t133 102.5t187 38.5q103 0 180.5 -36.5t129.5 -100t78 -150t26 -185.5q0 -96 -29.5 -180.5t-83.5 -147.5t-129.5 -99.5t-167.5 -36.5q-107 0 -187.5 34t-134.5 97t-81.5 152t-27.5 199zM253 1138q0 -63 17.5 -127t53 -115.5t89.5 -83.5 t126 -32q69 0 121 32.5t86.5 86t52 122.5t17.5 142q0 68 -17.5 129.5t-52.5 108t-87.5 73.5t-121.5 27q-71 0 -124 -27.5t-88.5 -76.5t-53.5 -115t-18 -144z" />
<glyph unicode="&#xbb;" horiz-adv-x="1258" d="M693 907l88 75l391 -437v-12l-386 -430l-83 75l279 360v8zM180 907l88 75l391 -437v-12l-386 -430l-83 75l279 360v8z" />
<glyph unicode="&#xbc;" horiz-adv-x="1681" d="M98 1273v169l230 139h128v-763h170v-129h-526v129h192v583zM203 25l1289 1587l93 -60l-1289 -1588zM847 233v49l443 592h150v-513h158v-128h-157v-237h-169v237h-425zM1019 361h253v347z" />
<glyph unicode="&#xbd;" horiz-adv-x="1894" d="M98 1273v169l230 139h128v-763h170v-129h-526v129h192v583zM220 23l1289 1587l93 -60l-1289 -1588zM1091 1v100q21 61 54 103.5t76 75.5t93.5 60t107.5 58q52 28 90 51t63.5 47.5t38 54.5t12.5 73q0 35 -9 64.5t-31 50.5t-59 32.5t-94 11.5q-24 0 -53 -8t-58.5 -23 t-57.5 -36.5t-50 -48.5l-89 110q33 30 68.5 54.5t75.5 42t85.5 27t98.5 9.5q73 0 135 -18.5t107.5 -52.5t71 -81.5t25.5 -105.5q0 -78 -28.5 -135t-72.5 -98t-96.5 -70t-100.5 -52q-46 -22 -84.5 -42.5t-66.5 -40.5t-43.5 -39t-15.5 -38h516v-136h-709z" />
<glyph unicode="&#xbe;" horiz-adv-x="1840" d="M100 744l79 120q15 -12 37.5 -25.5t51.5 -25t63 -18.5t72 -7q61 0 109 8.5t81.5 27t51 47t17.5 68.5q0 55 -22.5 84.5t-64.5 42.5t-101 15t-132 3l1 116q63 0 115.5 7.5t91 25t60 45t21.5 67.5q0 60 -55 85.5t-153 25.5q-72 0 -124.5 -23t-94.5 -60l-89 110 q24 20 53.5 37.5t67.5 31t85.5 21.5t107.5 8q77 0 144 -14t117 -41.5t79 -68t29 -92.5q0 -47 -12.5 -79.5t-36.5 -56t-59.5 -40t-82.5 -31.5q50 -8 92 -25t72 -44.5t46.5 -67t16.5 -91.5q0 -74 -28 -125.5t-84.5 -83.5t-140.5 -46.5t-195 -14.5q-54 0 -99 8t-81 20.5 t-62.5 27.5t-43.5 28zM352 23l1289 1587l93 -60l-1289 -1588zM1018 236v49l443 592h150v-513h158v-128h-157v-237h-169v237h-425zM1190 364h253v347z" />
<glyph unicode="&#xbf;" horiz-adv-x="996" d="M150 27q0 75 16 134.5t42 107t60 85t69.5 68.5t70.5 57.5t64 53.5q28 25 43 52.5t22 59.5t8 71.5t1 90.5h150q0 -71 -4.5 -126t-19.5 -101t-44 -86.5t-77 -81.5q-57 -49 -101.5 -86t-74.5 -79t-45.5 -98.5t-15.5 -143.5q0 -56 13 -107t43.5 -89.5t79.5 -61.5t121 -23 q27 0 57.5 6t60.5 18.5t59 32t53 45.5l95 -106q-63 -63 -149.5 -100.5t-207.5 -37.5q-84 0 -155.5 26.5t-123.5 81t-81 138.5t-29 199zM514 1089q0 24 8.5 45.5t23.5 37.5t35 25t43 9t43.5 -9t35.5 -25t24 -37.5t9 -45.5q0 -25 -9 -46.5t-24 -37.5t-35.5 -25t-43.5 -9t-43 9 t-35 25t-23.5 37.5t-8.5 46.5z" />
<glyph unicode="&#xc0;" horiz-adv-x="1277" d="M30 0l536 1567h165l520 -1567h-188l-167 534h-529l-168 -534h-169zM402 655h459l-225 716zM318 1967l127 117l304 -346l-59 -59z" />
<glyph unicode="&#xc1;" horiz-adv-x="1277" d="M30 0l536 1567h165l520 -1567h-188l-167 534h-529l-168 -534h-169zM402 655h459l-225 716zM519 1735l307 345l116 -125l-362 -280z" />
<glyph unicode="&#xc2;" horiz-adv-x="1277" d="M30 0l536 1567h165l520 -1567h-188l-167 534h-529l-168 -534h-169zM402 655h459l-225 716zM309 1686l297 337h68l297 -338l-61 -60l-270 223l-270 -223z" />
<glyph unicode="&#xc3;" horiz-adv-x="1277" d="M30 0l536 1567h165l520 -1567h-188l-167 534h-529l-168 -534h-169zM402 655h459l-225 716zM294 1714q10 37 32 72.5t53 63.5t69 45t80 17q46 0 78.5 -17.5t59 -39t51.5 -39t56 -17.5q36 0 71.5 17.5t56.5 58.5q4 8 7.5 16t8.5 17l79 -42q-12 -38 -32 -72.5t-48.5 -61.5 t-65.5 -43t-82 -16q-38 0 -69 18t-59.5 39t-57 39t-59.5 18q-35 0 -70 -17t-55 -52q-6 -11 -10 -19l-12 -24z" />
<glyph unicode="&#xc4;" horiz-adv-x="1277" d="M30 0l536 1567h165l520 -1567h-188l-167 534h-529l-168 -534h-169zM402 655h459l-225 716zM327 1815q0 40 27.5 66t67.5 26q41 0 67 -28t26 -66q0 -20 -7 -37.5t-19 -30.5t-29 -21t-38 -8q-20 0 -37.5 8.5t-30 22.5t-20 31.5t-7.5 36.5zM783 1815q0 40 27.5 66t67.5 26 q41 0 67 -28t26 -66q0 -20 -7 -37.5t-19 -30.5t-29 -21t-38 -8q-20 0 -37.5 8.5t-30 22.5t-20 31.5t-7.5 36.5z" />
<glyph unicode="&#xc5;" horiz-adv-x="1277" d="M30 0l536 1567h165l520 -1567h-188l-167 534h-529l-168 -534h-169zM402 655h459l-225 716zM403 1751q0 51 19 95.5t52 77.5t77.5 52t94.5 19t94.5 -19t77.5 -52t52.5 -77.5t19.5 -95.5q0 -50 -19.5 -94.5t-52.5 -77.5t-77.5 -52t-94.5 -19t-94.5 19t-77.5 52t-52 77.5 t-19 94.5zM510 1754q0 -33 10.5 -62.5t29 -51t43 -34t52.5 -12.5q31 0 56.5 12.5t43.5 34t28 51t10 62.5q0 32 -10 60.5t-28 49.5t-43.5 33t-56.5 12q-28 0 -52.5 -12t-43 -33t-29 -49.5t-10.5 -60.5z" />
<glyph unicode="&#xc6;" horiz-adv-x="1936" d="M61 0l857 1569h931v-131h-677v-548h541v-122h-541v-637h707v-131h-877v536h-472l-286 -536h-183zM588 657h414v739h-14z" />
<glyph unicode="&#xc7;" horiz-adv-x="1358" d="M130 797q0 337 167 574t471 237q177 0 266 -38t194 -139l-107 -112q-78 75 -154.5 110t-203.5 35q-205 0 -329.5 -190t-124.5 -451q0 -340 140.5 -522t318.5 -182q168 0 255 62t136 133l126 -88q-79 -107 -189.5 -179t-327.5 -72q-297 0 -467.5 229.5t-170.5 592.5z M565 -450l72 103q34 -29 58 -45t52 -16q20 0 39.5 8.5t35 24t25 37.5t9.5 49q0 21 -7 45t-23.5 45t-43.5 37t-68 21l32 143h107l-29 -82q35 -10 65.5 -27t53 -42.5t35.5 -59.5t13 -79q0 -47 -17.5 -89t-49 -73.5t-76 -50t-98.5 -18.5q-29 0 -52.5 4t-44.5 12t-42.5 21.5 t-45.5 31.5z" />
<glyph unicode="&#xc8;" horiz-adv-x="1107" d="M150 0v1567h837v-138h-667v-534h532v-131h-532v-626h697v-138h-867zM318 1962l127 117l304 -346l-59 -59z" />
<glyph unicode="&#xc9;" horiz-adv-x="1107" d="M150 0v1567h837v-138h-667v-534h532v-131h-532v-626h697v-138h-867zM384 1735l307 345l116 -125l-362 -280z" />
<glyph unicode="&#xca;" horiz-adv-x="1107" d="M150 0v1567h837v-138h-667v-534h532v-131h-532v-626h697v-138h-867zM235 1735l297 337h68l297 -338l-61 -60l-270 223l-270 -223z" />
<glyph unicode="&#xcb;" horiz-adv-x="1107" d="M150 0v1567h837v-138h-667v-534h532v-131h-532v-626h697v-138h-867zM251 1815q0 40 27.5 66t67.5 26q41 0 67 -28t26 -66q0 -20 -7 -37.5t-19 -30.5t-29 -21t-38 -8q-20 0 -37.5 8.5t-30 22.5t-20 31.5t-7.5 36.5zM707 1815q0 40 27.5 66t67.5 26q41 0 67 -28t26 -66 q0 -20 -7 -37.5t-19 -30.5t-29 -21t-38 -8q-20 0 -37.5 8.5t-30 22.5t-20 31.5t-7.5 36.5z" />
<glyph unicode="&#xcc;" horiz-adv-x="474" d="M150 0v1567h170v-1567h-170zM-81 1962l127 117l304 -346l-59 -59z" />
<glyph unicode="&#xcd;" horiz-adv-x="472" d="M150 0v1567h170v-1567h-170zM101 1732l307 345l116 -125l-362 -280z" />
<glyph unicode="&#xce;" horiz-adv-x="474" d="M150 0v1567h170v-1567h-170zM-90 1692l297 337h68l297 -338l-61 -60l-270 223l-270 -223z" />
<glyph unicode="&#xcf;" horiz-adv-x="473" d="M150 0v1567h170v-1567h-170zM-79 1815q0 40 27.5 66t67.5 26q41 0 67 -28t26 -66q0 -20 -7 -37.5t-19 -30.5t-29 -21t-38 -8q-20 0 -37.5 8.5t-30 22.5t-20 31.5t-7.5 36.5zM377 1815q0 40 27.5 66t67.5 26q41 0 67 -28t26 -66q0 -20 -7 -37.5t-19 -30.5t-29 -21t-38 -8 q-20 0 -37.5 8.5t-30 22.5t-20 31.5t-7.5 36.5z" />
<glyph unicode="&#xd0;" horiz-adv-x="1358" d="M20 756v131h130v680h335q135 0 242.5 -27t190 -76.5t141.5 -118.5t96.5 -153t55 -180.5t17.5 -199.5q0 -109 -17 -211.5t-54 -192.5t-96 -165t-142.5 -129t-194 -84t-250.5 -30h-324v756h-130zM320 130h127q127 0 236 38t189.5 120.5t126 212.5t45.5 315q0 130 -31 243 t-101.5 197t-183.5 132.5t-277 48.5h-131v-550h349v-131h-349v-626z" />
<glyph unicode="&#xd1;" horiz-adv-x="1419" d="M149 1567h170l779 -1293v1293h170v-1567h-163l-786 1287v-1287h-169zM380 1710q10 37 32 72.5t53 63.5t69 45t80 17q46 0 78.5 -17.5t59 -39t51.5 -39t56 -17.5q36 0 71.5 17.5t56.5 58.5q4 8 7.5 16t8.5 17l79 -42q-12 -38 -32 -72.5t-48.5 -61.5t-65.5 -43t-82 -16 q-38 0 -69 18t-59.5 39t-57 39t-59.5 18q-35 0 -70 -17t-55 -52q-6 -11 -10 -19l-12 -24z" />
<glyph unicode="&#xd2;" horiz-adv-x="1643" d="M130 795q0 179 53 328.5t147 257t221.5 167.5t276.5 60q152 0 278 -54.5t216.5 -156.5t140.5 -248.5t50 -330.5q0 -119 -22.5 -227.5t-65 -202.5t-103.5 -170t-138 -130t-168.5 -83.5t-194.5 -29.5q-166 0 -295 58.5t-217 166t-133.5 258.5t-45.5 337zM310 809 q0 -151 35 -277.5t100 -218t158 -143t209 -51.5t212 55t164.5 147.5t106.5 214t38 255.5q0 151 -33.5 275t-98 212.5t-159 137t-216.5 48.5q-108 0 -202 -46.5t-164 -132t-110 -206.5t-40 -270zM509 1962l127 117l304 -346l-59 -59z" />
<glyph unicode="&#xd3;" horiz-adv-x="1643" d="M130 795q0 179 53 328.5t147 257t221.5 167.5t276.5 60q152 0 278 -54.5t216.5 -156.5t140.5 -248.5t50 -330.5q0 -119 -22.5 -227.5t-65 -202.5t-103.5 -170t-138 -130t-168.5 -83.5t-194.5 -29.5q-166 0 -295 58.5t-217 166t-133.5 258.5t-45.5 337zM310 809 q0 -151 35 -277.5t100 -218t158 -143t209 -51.5t212 55t164.5 147.5t106.5 214t38 255.5q0 151 -33.5 275t-98 212.5t-159 137t-216.5 48.5q-108 0 -202 -46.5t-164 -132t-110 -206.5t-40 -270zM694 1735l307 345l116 -125l-362 -280z" />
<glyph unicode="&#xd4;" horiz-adv-x="1643" d="M130 795q0 179 53 328.5t147 257t221.5 167.5t276.5 60q152 0 278 -54.5t216.5 -156.5t140.5 -248.5t50 -330.5q0 -119 -22.5 -227.5t-65 -202.5t-103.5 -170t-138 -130t-168.5 -83.5t-194.5 -29.5q-166 0 -295 58.5t-217 166t-133.5 258.5t-45.5 337zM310 809 q0 -151 35 -277.5t100 -218t158 -143t209 -51.5t212 55t164.5 147.5t106.5 214t38 255.5q0 151 -33.5 275t-98 212.5t-159 137t-216.5 48.5q-108 0 -202 -46.5t-164 -132t-110 -206.5t-40 -270zM489 1739l297 337h68l297 -338l-61 -60l-270 223l-270 -223z" />
<glyph unicode="&#xd5;" horiz-adv-x="1643" d="M130 795q0 179 53 328.5t147 257t221.5 167.5t276.5 60q152 0 278 -54.5t216.5 -156.5t140.5 -248.5t50 -330.5q0 -119 -22.5 -227.5t-65 -202.5t-103.5 -170t-138 -130t-168.5 -83.5t-194.5 -29.5q-166 0 -295 58.5t-217 166t-133.5 258.5t-45.5 337zM310 809 q0 -151 35 -277.5t100 -218t158 -143t209 -51.5t212 55t164.5 147.5t106.5 214t38 255.5q0 151 -33.5 275t-98 212.5t-159 137t-216.5 48.5q-108 0 -202 -46.5t-164 -132t-110 -206.5t-40 -270zM464 1717q10 37 32 72.5t53 63.5t69 45t80 17q46 0 78.5 -17.5t59 -39 t51.5 -39t56 -17.5q36 0 71.5 17.5t56.5 58.5q4 8 7.5 16t8.5 17l79 -42q-12 -38 -32 -72.5t-48.5 -61.5t-65.5 -43t-82 -16q-38 0 -69 18t-59.5 39t-57 39t-59.5 18q-35 0 -70 -17t-55 -52q-6 -11 -10 -19l-12 -24z" />
<glyph unicode="&#xd6;" horiz-adv-x="1643" d="M130 795q0 179 53 328.5t147 257t221.5 167.5t276.5 60q152 0 278 -54.5t216.5 -156.5t140.5 -248.5t50 -330.5q0 -119 -22.5 -227.5t-65 -202.5t-103.5 -170t-138 -130t-168.5 -83.5t-194.5 -29.5q-166 0 -295 58.5t-217 166t-133.5 258.5t-45.5 337zM310 809 q0 -151 35 -277.5t100 -218t158 -143t209 -51.5t212 55t164.5 147.5t106.5 214t38 255.5q0 151 -33.5 275t-98 212.5t-159 137t-216.5 48.5q-108 0 -202 -46.5t-164 -132t-110 -206.5t-40 -270zM510 1815q0 40 27.5 66t67.5 26q41 0 67 -28t26 -66q0 -20 -7 -37.5t-19 -30.5 t-29 -21t-38 -8q-20 0 -37.5 8.5t-30 22.5t-20 31.5t-7.5 36.5zM966 1815q0 40 27.5 66t67.5 26q41 0 67 -28t26 -66q0 -20 -7 -37.5t-19 -30.5t-29 -21t-38 -8q-20 0 -37.5 8.5t-30 22.5t-20 31.5t-7.5 36.5z" />
<glyph unicode="&#xd7;" horiz-adv-x="1226" d="M100 66l420 491l-401 471l100 86l393 -457l390 455l106 -81l-404 -474l422 -494l-109 -89l-405 484l-411 -482z" />
<glyph unicode="&#xd8;" horiz-adv-x="1653" d="M84 4l188 242q-72 104 -108.5 241.5t-36.5 305.5q0 178 53 328t146 258t220 168.5t275 60.5q117 0 219 -33.5t184 -96.5l154 198l102 -81l-161 -207q88 -102 135 -246.5t47 -324.5q0 -179 -49.5 -332t-140 -266t-217 -177t-280.5 -64q-143 0 -256.5 43t-198.5 124 l-173 -222zM306 807q0 -118 22.5 -219.5t65.5 -183.5l728 942q-59 53 -134.5 80.5t-168.5 27.5q-106 0 -199.5 -46t-163 -131t-110 -204t-40.5 -266zM469 287q64 -75 148.5 -115t187.5 -40q113 0 208 53.5t163.5 144t107 209.5t38.5 250q0 139 -28.5 255t-85.5 201z" />
<glyph unicode="&#xd9;" horiz-adv-x="1473" d="M150 513v1054h170v-1064q0 -93 23.5 -163t73 -117.5t127 -71t185.5 -23.5q120 0 201 23.5t131 71t71.5 118t21.5 164.5v1062h169v-1051q0 -131 -33 -231.5t-105 -168.5t-187 -103t-279 -35q-150 0 -257.5 32.5t-177 99t-102 167t-32.5 236.5zM456 1937l127 117l304 -346 l-59 -59z" />
<glyph unicode="&#xda;" horiz-adv-x="1473" d="M150 513v1054h170v-1064q0 -93 23.5 -163t73 -117.5t127 -71t185.5 -23.5q120 0 201 23.5t131 71t71.5 118t21.5 164.5v1062h169v-1051q0 -131 -33 -231.5t-105 -168.5t-187 -103t-279 -35q-150 0 -257.5 32.5t-177 99t-102 167t-32.5 236.5zM571 1706l307 345l116 -125 l-362 -280z" />
<glyph unicode="&#xdb;" horiz-adv-x="1473" d="M150 513v1054h170v-1064q0 -93 23.5 -163t73 -117.5t127 -71t185.5 -23.5q120 0 201 23.5t131 71t71.5 118t21.5 164.5v1062h169v-1051q0 -131 -33 -231.5t-105 -168.5t-187 -103t-279 -35q-150 0 -257.5 32.5t-177 99t-102 167t-32.5 236.5zM386 1715l297 337h68 l297 -338l-61 -60l-270 223l-270 -223z" />
<glyph unicode="&#xdc;" horiz-adv-x="1473" d="M150 513v1054h170v-1064q0 -93 23.5 -163t73 -117.5t127 -71t185.5 -23.5q120 0 201 23.5t131 71t71.5 118t21.5 164.5v1062h169v-1051q0 -131 -33 -231.5t-105 -168.5t-187 -103t-279 -35q-150 0 -257.5 32.5t-177 99t-102 167t-32.5 236.5zM410 1815q0 40 27.5 66 t67.5 26q41 0 67 -28t26 -66q0 -20 -7 -37.5t-19 -30.5t-29 -21t-38 -8q-20 0 -37.5 8.5t-30 22.5t-20 31.5t-7.5 36.5zM866 1815q0 40 27.5 66t67.5 26q41 0 67 -28t26 -66q0 -20 -7 -37.5t-19 -30.5t-29 -21t-38 -8q-20 0 -37.5 8.5t-30 22.5t-20 31.5t-7.5 36.5z" />
<glyph unicode="&#xdd;" d="M47 1567h184l364 -704l365 704h184l-465 -835v-732h-172v715zM553 1662l307 345l116 -125l-362 -280z" />
<glyph unicode="&#xde;" horiz-adv-x="1159" d="M152 0v1567h170v-307h115q141 0 245 -33t172.5 -93.5t101.5 -145.5t33 -188q0 -39 -9.5 -87t-33 -97.5t-63 -96.5t-100 -83.5t-143.5 -59t-193 -22.5h-125v-354h-170zM322 480h136q87 0 153.5 27t111.5 72.5t67.5 105.5t22.5 126q0 69 -19.5 128t-67.5 102.5t-128.5 68.5 t-203.5 25h-72v-655z" />
<glyph unicode="&#xdf;" horiz-adv-x="1142" d="M162 0v1111q0 95 28 178t80 145t127 97.5t170 35.5q78 0 144 -18.5t114 -56.5t75.5 -95.5t27.5 -135.5q0 -46 -16 -84t-38.5 -69.5t-48.5 -57.5t-45 -47q-19 -22 -36 -41t-29.5 -38.5t-20 -40.5t-7.5 -45q0 -33 27.5 -59.5t69 -54t89.5 -59.5t89.5 -74.5t69 -100 t27.5 -135.5q0 -97 -27.5 -167.5t-76.5 -116t-117 -67t-149 -21.5q-30 0 -68 5t-76 14t-71.5 21.5t-54.5 28.5l69 124q47 -32 100 -51t107 -19q59 0 99.5 18t65 50t35 77t10.5 98q0 62 -26.5 107t-65.5 80.5t-85.5 65.5t-85.5 62t-65.5 70t-26.5 90q0 38 8 67.5t21.5 53.5 t30 44t34.5 39q18 20 40.5 42t42 49t32.5 61t13 78q0 42 -15.5 74.5t-42.5 55t-65 34t-83 11.5q-70 0 -117.5 -27t-76 -71.5t-40.5 -102.5t-12 -121v-1111h-158z" />
<glyph unicode="&#xe0;" horiz-adv-x="1173" d="M94 256q0 153 101 240t285 124.5t303 45.5v129q0 76 -51 127t-145 51q-85 0 -151 -22t-196 -119l-86 114q132 97 224 124t197 27q194 0 280 -75t86 -239v-545q0 -80 20.5 -106t70.5 -26q29 0 69 7l25 -73q-27 -26 -81.5 -42t-118.5 -16q-55 0 -92.5 36t-47.5 112 q-75 -54 -173.5 -101t-221.5 -47q-132 0 -214.5 74t-82.5 200zM265 286q0 -85 49.5 -128.5t132.5 -43.5q93 1 179.5 41t156.5 94v310q-214 -15 -366 -68.5t-152 -204.5zM323 1494l127 117l304 -346l-59 -59z" />
<glyph unicode="&#xe1;" horiz-adv-x="1173" d="M94 256q0 153 101 240t285 124.5t303 45.5v129q0 76 -51 127t-145 51q-85 0 -151 -22t-196 -119l-86 114q132 97 224 124t197 27q194 0 280 -75t86 -239v-545q0 -80 20.5 -106t70.5 -26q29 0 69 7l25 -73q-27 -26 -81.5 -42t-118.5 -16q-55 0 -92.5 36t-47.5 112 q-75 -54 -173.5 -101t-221.5 -47q-132 0 -214.5 74t-82.5 200zM265 286q0 -85 49.5 -128.5t132.5 -43.5q93 1 179.5 41t156.5 94v310q-214 -15 -366 -68.5t-152 -204.5zM439 1267l307 345l116 -125l-362 -280z" />
<glyph unicode="&#xe2;" horiz-adv-x="1173" d="M94 256q0 153 101 240t285 124.5t303 45.5v129q0 76 -51 127t-145 51q-85 0 -151 -22t-196 -119l-86 114q132 97 224 124t197 27q194 0 280 -75t86 -239v-545q0 -80 20.5 -106t70.5 -26q29 0 69 7l25 -73q-27 -26 -81.5 -42t-118.5 -16q-55 0 -92.5 36t-47.5 112 q-75 -54 -173.5 -101t-221.5 -47q-132 0 -214.5 74t-82.5 200zM265 286q0 -85 49.5 -128.5t132.5 -43.5q93 1 179.5 41t156.5 94v310q-214 -15 -366 -68.5t-152 -204.5zM252 1267l297 337h68l297 -338l-61 -60l-270 223l-270 -223z" />
<glyph unicode="&#xe3;" horiz-adv-x="1173" d="M94 256q0 153 101 240t285 124.5t303 45.5v129q0 76 -51 127t-145 51q-85 0 -151 -22t-196 -119l-86 114q132 97 224 124t197 27q194 0 280 -75t86 -239v-545q0 -80 20.5 -106t70.5 -26q29 0 69 7l25 -73q-27 -26 -81.5 -42t-118.5 -16q-55 0 -92.5 36t-47.5 112 q-75 -54 -173.5 -101t-221.5 -47q-132 0 -214.5 74t-82.5 200zM265 286q0 -85 49.5 -128.5t132.5 -43.5q93 1 179.5 41t156.5 94v310q-214 -15 -366 -68.5t-152 -204.5zM244 1245q10 37 32 72.5t53 63.5t69 45t80 17q46 0 78.5 -17.5t59 -39t51.5 -39t56 -17.5 q36 0 71.5 17.5t56.5 58.5q4 8 7.5 16t8.5 17l79 -42q-12 -38 -32 -72.5t-48.5 -61.5t-65.5 -43t-82 -16q-38 0 -69 18t-59.5 39t-57 39t-59.5 18q-35 0 -70 -17t-55 -52q-6 -11 -10 -19l-12 -24z" />
<glyph unicode="&#xe4;" horiz-adv-x="1173" d="M94 256q0 153 101 240t285 124.5t303 45.5v129q0 76 -51 127t-145 51q-85 0 -151 -22t-196 -119l-86 114q132 97 224 124t197 27q194 0 280 -75t86 -239v-545q0 -80 20.5 -106t70.5 -26q29 0 69 7l25 -73q-27 -26 -81.5 -42t-118.5 -16q-55 0 -92.5 36t-47.5 112 q-75 -54 -173.5 -101t-221.5 -47q-132 0 -214.5 74t-82.5 200zM265 286q0 -85 49.5 -128.5t132.5 -43.5q93 1 179.5 41t156.5 94v310q-214 -15 -366 -68.5t-152 -204.5zM272 1305q0 40 27.5 66t67.5 26q41 0 67 -28t26 -66q0 -20 -7 -37.5t-19 -30.5t-29 -21t-38 -8 q-20 0 -37.5 8.5t-30 22.5t-20 31.5t-7.5 36.5zM728 1305q0 40 27.5 66t67.5 26q41 0 67 -28t26 -66q0 -20 -7 -37.5t-19 -30.5t-29 -21t-38 -8q-20 0 -37.5 8.5t-30 22.5t-20 31.5t-7.5 36.5z" />
<glyph unicode="&#xe5;" horiz-adv-x="1173" d="M94 256q0 153 101 240t285 124.5t303 45.5v129q0 76 -51 127t-145 51q-85 0 -151 -22t-196 -119l-86 114q132 97 224 124t197 27q194 0 280 -75t86 -239v-545q0 -80 20.5 -106t70.5 -26q29 0 69 7l25 -73q-27 -26 -81.5 -42t-118.5 -16q-55 0 -92.5 36t-47.5 112 q-75 -54 -173.5 -101t-221.5 -47q-132 0 -214.5 74t-82.5 200zM265 286q0 -85 49.5 -128.5t132.5 -43.5q93 1 179.5 41t156.5 94v310q-214 -15 -366 -68.5t-152 -204.5zM331 1447q0 51 19 95.5t52 77.5t77.5 52t94.5 19t94.5 -19t77.5 -52t52.5 -77.5t19.5 -95.5 q0 -50 -19.5 -94.5t-52.5 -77.5t-77.5 -52t-94.5 -19t-94.5 19t-77.5 52t-52 77.5t-19 94.5zM438 1450q0 -33 10.5 -62.5t29 -51t43 -34t52.5 -12.5q31 0 56.5 12.5t43.5 34t28 51t10 62.5q0 32 -10 60.5t-28 49.5t-43.5 33t-56.5 12q-28 0 -52.5 -12t-43 -33t-29 -49.5 t-10.5 -60.5z" />
<glyph unicode="&#xe6;" horiz-adv-x="1662" d="M117 253q0 82 24 141.5t67 102t102 70t128.5 46t147.5 30t159 21.5q0 17 1 36.5t2 38.5t2.5 36t3.5 29q0 41 -16 72.5t-42.5 53t-61.5 32.5t-72 11t-71.5 -6.5t-71.5 -22t-78.5 -43t-90.5 -69.5l-80 116q51 39 98.5 67.5t95 46.5t96 26.5t99.5 8.5q66 0 114 -10.5 t82.5 -30t57.5 -47t40 -61.5q50 69 125.5 109t181.5 40q107 0 183 -28.5t124 -87.5t70.5 -150t22.5 -216l-660 -47q0 -91 19 -173t53.5 -144.5t83.5 -99.5t110 -37q42 0 81.5 7.5t77 26.5t72.5 51.5t68 82.5l111 -93q-50 -62 -99 -102.5t-99.5 -63.5t-102.5 -32t-109 -9 q-102 0 -177 38.5t-129 100.5q-75 -47 -133.5 -75t-108 -42t-93 -18t-88.5 -4q-59 0 -116.5 14t-102.5 46.5t-73 84t-28 126.5zM288 285q0 -50 18 -83t47 -53t65 -28t73 -8q34 0 70 3t75 13t82 30t91 53q-36 71 -50 156.5t-14 176.5v13q-98 -13 -181.5 -29t-144.5 -45 t-96 -76t-35 -123zM900 670l494 46q-3 61 -17 109t-42 81t-71 50t-104 17q-64 0 -112.5 -25t-81 -66.5t-49 -96.5t-17.5 -115z" />
<glyph unicode="&#xe7;" horiz-adv-x="1075" d="M104 544q0 111 32 211.5t94.5 176.5t154 120.5t212.5 44.5q61 0 110 -7t92.5 -24t82 -46t75.5 -72l-103 -94q-57 67 -114 97t-150 30q-80 0 -140 -34.5t-100 -93t-60 -134.5t-20 -159q0 -88 23 -170.5t66 -146.5t102.5 -102.5t133.5 -38.5q116 0 179.5 40.5t113.5 111.5 l111 -76q-39 -57 -82.5 -94.5t-93 -59.5t-106 -31t-122.5 -9q-84 0 -153.5 21.5t-124 60t-94.5 91t-66.5 114.5t-39.5 131.5t-13 141.5zM363 -448l72 103q34 -29 58 -45t52 -16q20 0 39.5 8.5t35 24t25 37.5t9.5 49q0 21 -7 45t-23.5 45t-43.5 37t-68 21l32 143h107l-29 -82 q35 -10 65.5 -27t53 -42.5t35.5 -59.5t13 -79q0 -47 -17.5 -89t-49 -73.5t-76 -50t-98.5 -18.5q-29 0 -52.5 4t-44.5 12t-42.5 21.5t-45.5 31.5z" />
<glyph unicode="&#xe8;" horiz-adv-x="1132" d="M112 557q0 108 27 207t83.5 175t143 121t206.5 45q107 0 184 -28.5t128 -81t79 -127.5t36 -169q4 -47 4 -98q0 -25 -1 -51h-724q0 -86 20.5 -165t58.5 -139t92 -96t123 -36q49 0 93 7.5t84.5 27t79.5 52.5t77 84l114 -92q-52 -66 -104 -107t-106 -64t-110.5 -31.5 t-117.5 -8.5q-123 0 -212 47.5t-146 127t-84.5 183.5t-27.5 217zM280 658h561q-3 59 -17.5 117t-45.5 103.5t-82 74t-126 28.5q-71 0 -124 -28.5t-88.5 -74.5t-55 -104t-22.5 -116zM276 1494l127 117l304 -346l-59 -59z" />
<glyph unicode="&#xe9;" horiz-adv-x="1132" d="M112 557q0 108 27 207t83.5 175t143 121t206.5 45q107 0 184 -28.5t128 -81t79 -127.5t36 -169q4 -47 4 -98q0 -25 -1 -51h-724q0 -86 20.5 -165t58.5 -139t92 -96t123 -36q49 0 93 7.5t84.5 27t79.5 52.5t77 84l114 -92q-52 -66 -104 -107t-106 -64t-110.5 -31.5 t-117.5 -8.5q-123 0 -212 47.5t-146 127t-84.5 183.5t-27.5 217zM280 658h561q-3 59 -17.5 117t-45.5 103.5t-82 74t-126 28.5q-71 0 -124 -28.5t-88.5 -74.5t-55 -104t-22.5 -116zM439 1267l307 345l116 -125l-362 -280z" />
<glyph unicode="&#xea;" horiz-adv-x="1132" d="M112 557q0 108 27 207t83.5 175t143 121t206.5 45q107 0 184 -28.5t128 -81t79 -127.5t36 -169q4 -47 4 -98q0 -25 -1 -51h-724q0 -86 20.5 -165t58.5 -139t92 -96t123 -36q49 0 93 7.5t84.5 27t79.5 52.5t77 84l114 -92q-52 -66 -104 -107t-106 -64t-110.5 -31.5 t-117.5 -8.5q-123 0 -212 47.5t-146 127t-84.5 183.5t-27.5 217zM280 658h561q-3 59 -17.5 117t-45.5 103.5t-82 74t-126 28.5q-71 0 -124 -28.5t-88.5 -74.5t-55 -104t-22.5 -116zM236 1242l297 337h68l297 -338l-61 -60l-270 223l-270 -223z" />
<glyph unicode="&#xeb;" horiz-adv-x="1132" d="M112 557q0 108 27 207t83.5 175t143 121t206.5 45q107 0 184 -28.5t128 -81t79 -127.5t36 -169q4 -47 4 -98q0 -25 -1 -51h-724q0 -86 20.5 -165t58.5 -139t92 -96t123 -36q49 0 93 7.5t84.5 27t79.5 52.5t77 84l114 -92q-52 -66 -104 -107t-106 -64t-110.5 -31.5 t-117.5 -8.5q-123 0 -212 47.5t-146 127t-84.5 183.5t-27.5 217zM280 658h561q-3 59 -17.5 117t-45.5 103.5t-82 74t-126 28.5q-71 0 -124 -28.5t-88.5 -74.5t-55 -104t-22.5 -116zM274 1305q0 40 27.5 66t67.5 26q41 0 67 -28t26 -66q0 -20 -7 -37.5t-19 -30.5t-29 -21 t-38 -8q-20 0 -37.5 8.5t-30 22.5t-20 31.5t-7.5 36.5zM730 1305q0 40 27.5 66t67.5 26q41 0 67 -28t26 -66q0 -20 -7 -37.5t-19 -30.5t-29 -21t-38 -8q-20 0 -37.5 8.5t-30 22.5t-20 31.5t-7.5 36.5z" />
<glyph unicode="&#xec;" horiz-adv-x="474" d="M160 0v1080h158v-1080h-158zM-73 1494l127 117l304 -346l-59 -59z" />
<glyph unicode="&#xed;" horiz-adv-x="476" d="M160 0v1080h158v-1080h-158zM112 1267l307 345l116 -125l-362 -280z" />
<glyph unicode="&#xee;" horiz-adv-x="476" d="M160 0v1080h158v-1080h-158zM-92 1170l297 337h68l297 -338l-61 -60l-270 223l-270 -223z" />
<glyph unicode="&#xef;" horiz-adv-x="474" d="M160 0v1080h158v-1080h-158zM-81 1305q0 40 27.5 66t67.5 26q41 0 67 -28t26 -66q0 -20 -7 -37.5t-19 -30.5t-29 -21t-38 -8q-20 0 -37.5 8.5t-30 22.5t-20 31.5t-7.5 36.5zM375 1305q0 40 27.5 66t67.5 26q41 0 67 -28t26 -66q0 -20 -7 -37.5t-19 -30.5t-29 -21t-38 -8 q-20 0 -37.5 8.5t-30 22.5t-20 31.5t-7.5 36.5z" />
<glyph unicode="&#xf0;" horiz-adv-x="1210" d="M104 540q0 136 39 235t105 164t154 96.5t186 31.5q44 0 80.5 -4t68.5 -15t62.5 -30t63.5 -48q-6 43 -18 85t-33.5 84t-53.5 85.5t-78 88.5l-232 -138l-55 84l212 119q-22 18 -42.5 31t-42 23.5t-45.5 19t-52 17.5l55 118q28 -11 62.5 -27t69 -34.5t66 -38.5t53.5 -38 l183 109l52 -86l-169 -93q60 -60 103.5 -128.5t74 -141t49.5 -146.5t29.5 -144.5t14.5 -135.5t4 -119q0 -137 -32 -245.5t-91.5 -183.5t-145 -115t-193.5 -40q-113 0 -205.5 39.5t-159 112t-103 176t-36.5 232.5zM271 557q0 -101 24.5 -183.5t68.5 -141t105 -91t135 -32.5 q70 0 125.5 33t94.5 93t59.5 144.5t20.5 188.5q0 66 -20.5 131.5t-60 117.5t-97 84.5t-131.5 32.5q-66 0 -125 -20.5t-103 -65.5t-70 -116.5t-26 -174.5z" />
<glyph unicode="&#xf1;" horiz-adv-x="1129" d="M152 1084h153q2 -10 4 -23.5t3.5 -27.5t2.5 -27t2 -22q37 23 79.5 43.5t89.5 36t97 24.5t101 9q79 0 141 -24t104.5 -68t64.5 -107.5t22 -142.5v-755h-158v742q0 57 -16 99.5t-42.5 70.5t-62 42t-74.5 14q-44 0 -90 -7t-90.5 -20.5t-86 -32t-77.5 -40.5v-868h-158v941 q0 37 -2 76.5t-7 66.5zM231 1245q10 37 32 72.5t53 63.5t69 45t80 17q46 0 78.5 -17.5t59 -39t51.5 -39t56 -17.5q36 0 71.5 17.5t56.5 58.5q4 8 7.5 16t8.5 17l79 -42q-12 -38 -32 -72.5t-48.5 -61.5t-65.5 -43t-82 -16q-38 0 -69 18t-59.5 39t-57 39t-59.5 18 q-35 0 -70 -17t-55 -52q-6 -11 -10 -19l-12 -24z" />
<glyph unicode="&#xf2;" horiz-adv-x="1242" d="M120 555q0 232 139 387t370 155q236 0 364.5 -161t128.5 -401q0 -228 -135 -390.5t-353 -162.5q-254 0 -384 157t-130 416zM285 536q0 -166 63.5 -258t128 -130.5t150.5 -38.5q83 0 145 39t123.5 141t61.5 277q0 153 -84.5 278.5t-247.5 125.5t-251.5 -120t-88.5 -314z M301 1494l127 117l304 -346l-59 -59z" />
<glyph unicode="&#xf3;" horiz-adv-x="1242" d="M120 555q0 232 139 387t370 155q236 0 364.5 -161t128.5 -401q0 -228 -135 -390.5t-353 -162.5q-254 0 -384 157t-130 416zM285 536q0 -166 63.5 -258t128 -130.5t150.5 -38.5q83 0 145 39t123.5 141t61.5 277q0 153 -84.5 278.5t-247.5 125.5t-251.5 -120t-88.5 -314z M494 1267l307 345l116 -125l-362 -280z" />
<glyph unicode="&#xf4;" horiz-adv-x="1242" d="M120 555q0 232 139 387t370 155q236 0 364.5 -161t128.5 -401q0 -228 -135 -390.5t-353 -162.5q-254 0 -384 157t-130 416zM285 536q0 -166 63.5 -258t128 -130.5t150.5 -38.5q83 0 145 39t123.5 141t61.5 277q0 153 -84.5 278.5t-247.5 125.5t-251.5 -120t-88.5 -314z M299 1231l297 337h68l297 -338l-61 -60l-270 223l-270 -223z" />
<glyph unicode="&#xf5;" horiz-adv-x="1242" d="M120 555q0 232 139 387t370 155q236 0 364.5 -161t128.5 -401q0 -228 -135 -390.5t-353 -162.5q-254 0 -384 157t-130 416zM285 536q0 -166 63.5 -258t128 -130.5t150.5 -38.5q83 0 145 39t123.5 141t61.5 277q0 153 -84.5 278.5t-247.5 125.5t-251.5 -120t-88.5 -314z M270 1245q10 37 32 72.5t53 63.5t69 45t80 17q46 0 78.5 -17.5t59 -39t51.5 -39t56 -17.5q36 0 71.5 17.5t56.5 58.5q4 8 7.5 16t8.5 17l79 -42q-12 -38 -32 -72.5t-48.5 -61.5t-65.5 -43t-82 -16q-38 0 -69 18t-59.5 39t-57 39t-59.5 18q-35 0 -70 -17t-55 -52 q-6 -11 -10 -19l-12 -24z" />
<glyph unicode="&#xf6;" horiz-adv-x="1242" d="M120 555q0 232 139 387t370 155q236 0 364.5 -161t128.5 -401q0 -228 -135 -390.5t-353 -162.5q-254 0 -384 157t-130 416zM285 536q0 -166 63.5 -258t128 -130.5t150.5 -38.5q83 0 145 39t123.5 141t61.5 277q0 153 -84.5 278.5t-247.5 125.5t-251.5 -120t-88.5 -314z M301 1305q0 40 27.5 66t67.5 26q41 0 67 -28t26 -66q0 -20 -7 -37.5t-19 -30.5t-29 -21t-38 -8q-20 0 -37.5 8.5t-30 22.5t-20 31.5t-7.5 36.5zM757 1305q0 40 27.5 66t67.5 26q41 0 67 -28t26 -66q0 -20 -7 -37.5t-19 -30.5t-29 -21t-38 -8q-20 0 -37.5 8.5t-30 22.5 t-20 31.5t-7.5 36.5z" />
<glyph unicode="&#xf7;" horiz-adv-x="1114" d="M98 571v150h912v-150h-912zM444 324q0 25 9 46.5t24.5 37.5t36 25t43.5 9t43 -9t34.5 -25t23 -37.5t8.5 -46.5q0 -24 -8.5 -45.5t-23 -37.5t-34.5 -25.5t-43 -9.5t-43.5 9.5t-36 25.5t-24.5 37.5t-9 45.5zM445 960q0 25 9 46.5t24.5 37.5t36 25t43.5 9t43 -9t34.5 -25 t23 -37.5t8.5 -46.5q0 -24 -8.5 -45.5t-23 -37.5t-34.5 -25.5t-43 -9.5t-43.5 9.5t-36 25.5t-24.5 37.5t-9 45.5z" />
<glyph unicode="&#xf8;" horiz-adv-x="1200" d="M79 -13l137 170q-60 75 -89 176.5t-29 227.5q0 67 14 133.5t42.5 127t71 112t98.5 90t125.5 60t153.5 21.5q86 0 156 -22t127 -64l106 138l97 -80l-112 -146q58 -76 87 -176t29 -215t-35 -216t-98.5 -176.5t-153 -119.5t-198.5 -44q-92 0 -166.5 22.5t-134.5 64.5 l-130 -164zM261 540q0 -63 16 -125.5t48 -116.5l467 601q-37 31 -85 49t-108 18q-84 0 -147.5 -32.5t-105.5 -90t-63.5 -135.5t-21.5 -168zM405 196q38 -34 86.5 -53.5t109.5 -19.5q81 0 142.5 38t103 100t62 142.5t20.5 164.5q0 63 -14 122t-42 107z" />
<glyph unicode="&#xf9;" horiz-adv-x="1127" d="M135 327v753h158v-741q0 -54 17 -94.5t44.5 -67t63 -40t72.5 -13.5q103 0 184 28.5t156 85.5v842h158v-939q0 -65 14 -141h-161q-2 9 -3.5 22.5t-3.5 29.5t-3.5 32t-1.5 28q-48 -32 -93 -56t-89.5 -40t-90.5 -24.5t-97 -8.5q-85 0 -146 26.5t-100.5 73t-58.5 109 t-19 135.5zM308 1494l127 117l304 -346l-59 -59z" />
<glyph unicode="&#xfa;" horiz-adv-x="1127" d="M135 327v753h158v-741q0 -54 17 -94.5t44.5 -67t63 -40t72.5 -13.5q103 0 184 28.5t156 85.5v842h158v-939q0 -65 14 -141h-161q-2 9 -3.5 22.5t-3.5 29.5t-3.5 32t-1.5 28q-48 -32 -93 -56t-89.5 -40t-90.5 -24.5t-97 -8.5q-85 0 -146 26.5t-100.5 73t-58.5 109 t-19 135.5zM336 1267l307 345l116 -125l-362 -280z" />
<glyph unicode="&#xfb;" horiz-adv-x="1127" d="M135 327v753h158v-741q0 -54 17 -94.5t44.5 -67t63 -40t72.5 -13.5q103 0 184 28.5t156 85.5v842h158v-939q0 -65 14 -141h-161q-2 9 -3.5 22.5t-3.5 29.5t-3.5 32t-1.5 28q-48 -32 -93 -56t-89.5 -40t-90.5 -24.5t-97 -8.5q-85 0 -146 26.5t-100.5 73t-58.5 109 t-19 135.5zM208 1267l297 337h68l297 -338l-61 -60l-270 223l-270 -223z" />
<glyph unicode="&#xfc;" horiz-adv-x="1127" d="M135 327v753h158v-741q0 -54 17 -94.5t44.5 -67t63 -40t72.5 -13.5q103 0 184 28.5t156 85.5v842h158v-939q0 -65 14 -141h-161q-2 9 -3.5 22.5t-3.5 29.5t-3.5 32t-1.5 28q-48 -32 -93 -56t-89.5 -40t-90.5 -24.5t-97 -8.5q-85 0 -146 26.5t-100.5 73t-58.5 109 t-19 135.5zM236 1305q0 40 27.5 66t67.5 26q41 0 67 -28t26 -66q0 -20 -7 -37.5t-19 -30.5t-29 -21t-38 -8q-20 0 -37.5 8.5t-30 22.5t-20 31.5t-7.5 36.5zM692 1305q0 40 27.5 66t67.5 26q41 0 67 -28t26 -66q0 -20 -7 -37.5t-19 -30.5t-29 -21t-38 -8q-20 0 -37.5 8.5 t-30 22.5t-20 31.5t-7.5 36.5z" />
<glyph unicode="&#xfd;" horiz-adv-x="1020" d="M-29 -444l29 151q61 -25 128 -25q63 0 106 19.5t75 56.5t56.5 91t50.5 123q15 35 27 99l-406 1009h170l327 -864l284 864h171l-431 -1162q-36 -93 -74 -163t-84.5 -118.5t-110 -74t-156.5 -25.5q-73 0 -162 19zM358 1267l307 345l116 -125l-362 -280z" />
<glyph unicode="&#xfe;" horiz-adv-x="1129" d="M146 -453v1387v633h158v-552q44 19 84.5 34.5t79.5 26t78.5 16t82.5 5.5q106 0 184.5 -42t131 -116t78.5 -175.5t26 -220.5q0 -107 -28.5 -208t-84 -179.5t-136.5 -126t-186 -47.5q-47 0 -85 3.5t-73 12t-71.5 23.5t-79.5 39v-513h-159zM304 202q35 -26 71.5 -42.5 t74 -25.5t76.5 -12.5t80 -3.5q72 0 124.5 35.5t86 95t50 136.5t16.5 161q0 87 -16.5 163t-52 132t-91.5 88.5t-136 32.5q-36 0 -71 -3t-69.5 -10.5t-69.5 -20.5t-73 -34v-692z" />
<glyph unicode="&#xff;" horiz-adv-x="1039" d="M-29 -444l29 151q61 -25 128 -25q63 0 106 19.5t75 56.5t56.5 91t50.5 123q15 35 27 99l-406 1009h170l327 -864l284 864h171l-431 -1162q-36 -93 -74 -163t-84.5 -118.5t-110 -74t-156.5 -25.5q-73 0 -162 19zM200 1305q0 40 27.5 66t67.5 26q41 0 67 -28t26 -66 q0 -20 -7 -37.5t-19 -30.5t-29 -21t-38 -8q-20 0 -37.5 8.5t-30 22.5t-20 31.5t-7.5 36.5zM656 1305q0 40 27.5 66t67.5 26q41 0 67 -28t26 -66q0 -20 -7 -37.5t-19 -30.5t-29 -21t-38 -8q-20 0 -37.5 8.5t-30 22.5t-20 31.5t-7.5 36.5z" />
<glyph unicode="&#x131;" horiz-adv-x="475" d="M160 0v1080h158v-1080h-158z" />
<glyph unicode="&#x152;" horiz-adv-x="1990" d="M130 793q0 119 24 225.5t68.5 197t107 163.5t139.5 123.5t166.5 78t188.5 27.5q36 0 67 -3t60.5 -8t58.5 -12.5t59 -17.5h829v-138h-680v-539h544v-131h-544v-621h709v-138h-861q-49 -8 -111.5 -14t-148.5 -6q-165 0 -291.5 57.5t-212 164t-129 256.5t-43.5 335zM309 807 q0 -152 35 -277.5t99.5 -216.5t157 -141t207.5 -50q78 0 135.5 10.5t104.5 32.5v1253q-48 19 -100.5 32.5t-126.5 13.5q-106 0 -199 -46.5t-162.5 -132t-110 -207t-40.5 -271.5z" />
<glyph unicode="&#x153;" horiz-adv-x="1945" d="M104 558q0 100 30.5 196.5t92.5 172.5t156 123t221 47q75 0 137.5 -15.5t113 -44t89.5 -69t69 -89.5q28 48 63 88t80.5 69t102.5 45t129 16q126 0 210 -38.5t135 -110t72 -172.5t21 -226l-734 -1q0 -92 22 -171t62 -138t96.5 -92.5t125.5 -33.5q47 0 90 7t83.5 26t79 53 t76.5 87l114 -92q-51 -66 -102.5 -107t-104.5 -64.5t-110 -32t-118 -8.5q-76 0 -137 17t-109.5 48t-84.5 74t-62 95q-30 -52 -71.5 -95t-93.5 -74t-113 -48t-129 -17q-127 0 -221 41t-156.5 116t-93.5 181t-31 237zM269 537q0 -76 20 -152t61.5 -137t104 -99.5t147.5 -38.5 q81 0 142 38.5t102 102.5t62 145.5t21 168.5q0 82 -21 155.5t-62.5 129t-103 88t-142.5 32.5q-85 0 -147.5 -33t-103 -90.5t-60.5 -137t-20 -172.5zM1095 655h565q-3 62 -18.5 119t-47 100.5t-81 69.5t-120.5 26q-75 0 -128.5 -27.5t-89 -71.5t-55 -101t-25.5 -115z" />
<glyph unicode="&#x178;" d="M47 1567h184l364 -704l365 704h184l-465 -835v-732h-172v715zM269 1750q0 40 27.5 66t67.5 26q41 0 67 -28t26 -66q0 -20 -7 -37.5t-19 -30.5t-29 -21t-38 -8q-20 0 -37.5 8.5t-30 22.5t-20 31.5t-7.5 36.5zM725 1750q0 40 27.5 66t67.5 26q41 0 67 -28t26 -66 q0 -20 -7 -37.5t-19 -30.5t-29 -21t-38 -8q-20 0 -37.5 8.5t-30 22.5t-20 31.5t-7.5 36.5z" />
<glyph unicode="&#x2c6;" horiz-adv-x="0" d="M-331 1267l297 337h68l297 -338l-61 -60l-270 223l-270 -223z" />
<glyph unicode="&#x2da;" horiz-adv-x="0" d="M-243 1447q0 51 19 95.5t52 77.5t77.5 52t94.5 19t94.5 -19t77.5 -52t52.5 -77.5t19.5 -95.5q0 -50 -19.5 -94.5t-52.5 -77.5t-77.5 -52t-94.5 -19t-94.5 19t-77.5 52t-52 77.5t-19 94.5zM-136 1450q0 -33 10.5 -62.5t29 -51t43 -34t52.5 -12.5q31 0 56.5 12.5t43.5 34 t28 51t10 62.5q0 32 -10 60.5t-28 49.5t-43.5 33t-56.5 12q-28 0 -52.5 -12t-43 -33t-29 -49.5t-10.5 -60.5z" />
<glyph unicode="&#x2dc;" horiz-adv-x="0" d="M-353 1245q10 37 32 72.5t53 63.5t69 45t80 17q46 0 78.5 -17.5t59 -39t51.5 -39t56 -17.5q36 0 71.5 17.5t56.5 58.5q4 8 7.5 16t8.5 17l79 -42q-12 -38 -32 -72.5t-48.5 -61.5t-65.5 -43t-82 -16q-38 0 -69 18t-59.5 39t-57 39t-59.5 18q-35 0 -70 -17t-55 -52 q-6 -11 -10 -19l-12 -24z" />
<glyph unicode="&#x2013;" horiz-adv-x="912" d="M0 571v130h912v-130h-912z" />
<glyph unicode="&#x2014;" horiz-adv-x="1792" d="M0 571v130h1792v-130h-1792z" />
<glyph unicode="&#x2018;" horiz-adv-x="409" d="M61 1398q0 69 19 120t52 90t76 68t91 55l45 -59q-35 -23 -65 -45t-52 -46t-34.5 -52t-12.5 -64q0 -11 2 -21.5t5 -22.5q6 5 23 11t37 6q43 0 65.5 -29t22.5 -70q0 -23 -9 -43t-25 -35t-36.5 -23.5t-44.5 -8.5q-41 0 -71 16t-49.5 40.5t-29 54.5t-9.5 58z" />
<glyph unicode="&#x2019;" horiz-adv-x="409" d="M65 1289q35 23 65 45t52 46t34.5 52t12.5 64q0 11 -2 21.5t-5 22.5q-6 -5 -23 -11t-37 -6q-43 0 -65 29t-22 70q0 22 9 42t24.5 35t36.5 24t44 9q41 0 71 -16t49.5 -40.5t29 -54.5t9.5 -58q0 -69 -19 -120t-51.5 -90t-76 -68.5t-91.5 -54.5z" />
<glyph unicode="&#x201a;" horiz-adv-x="502" d="M115 -244q35 22 65 44t52 46.5t34.5 52.5t12.5 64q0 11 -2 21.5t-5 22.5q-6 -5 -23 -11t-37 -6q-43 0 -65.5 29t-22.5 70q0 22 9 42t25 35t36.5 24t44.5 9q41 0 71 -16t49.5 -41t29 -54.5t9.5 -57.5q0 -69 -19 -120t-52 -90t-76 -68.5t-91 -55.5z" />
<glyph unicode="&#x201c;" horiz-adv-x="814" d="M433 1398q0 69 19 120t52 90t76 68t91 55l45 -59q-35 -23 -65 -45t-52 -46t-34.5 -52t-12.5 -64q0 -11 2 -21.5t5 -22.5q6 5 23 11t37 6q43 0 65.5 -29t22.5 -70q0 -23 -9 -43t-25 -35t-36.5 -23.5t-44.5 -8.5q-41 0 -71 16t-49.5 40.5t-29 54.5t-9.5 58zM61 1398 q0 69 19 120t52 90t76 68t91 55l45 -59q-35 -23 -65 -45t-52 -46t-34.5 -52t-12.5 -64q0 -11 2 -21.5t5 -22.5q6 5 23 11t37 6q43 0 65.5 -29t22.5 -70q0 -23 -9 -43t-25 -35t-36.5 -23.5t-44.5 -8.5q-41 0 -71 16t-49.5 40.5t-29 54.5t-9.5 58z" />
<glyph unicode="&#x201d;" horiz-adv-x="833" d="M446 1289q35 23 65 45t52 46t34.5 52t12.5 64q0 11 -2 21.5t-5 22.5q-6 -5 -23 -11t-37 -6q-43 0 -65 29t-22 70q0 22 9 42t24.5 35t36.5 24t44 9q41 0 71 -16t49.5 -40.5t29 -54.5t9.5 -58q0 -69 -19 -120t-51.5 -90t-76 -68.5t-91.5 -54.5zM65 1289q35 23 65 45t52 46 t34.5 52t12.5 64q0 11 -2 21.5t-5 22.5q-6 -5 -23 -11t-37 -6q-43 0 -65 29t-22 70q0 22 9 42t24.5 35t36.5 24t44 9q41 0 71 -16t49.5 -40.5t29 -54.5t9.5 -58q0 -69 -19 -120t-51.5 -90t-76 -68.5t-91.5 -54.5z" />
<glyph unicode="&#x201e;" horiz-adv-x="986" d="M598 -244q35 22 65 44t52 46.5t34.5 52.5t12.5 64q0 11 -2 21.5t-5 22.5q-6 -5 -23 -11t-37 -6q-43 0 -65.5 29t-22.5 70q0 22 9 42t25 35t36.5 24t44.5 9q41 0 71 -16t49.5 -41t29 -54.5t9.5 -57.5q0 -69 -19 -120t-52 -90t-76 -68.5t-91 -55.5zM115 -244q35 22 65 44 t52 46.5t34.5 52.5t12.5 64q0 11 -2 21.5t-5 22.5q-6 -5 -23 -11t-37 -6q-43 0 -65.5 29t-22.5 70q0 22 9 42t25 35t36.5 24t44.5 9q41 0 71 -16t49.5 -41t29 -54.5t9.5 -57.5q0 -69 -19 -120t-52 -90t-76 -68.5t-91 -55.5z" />
<glyph unicode="&#x2022;" horiz-adv-x="834" d="M293 673q0 26 10 49t27 40t40 27t49 10t49 -10t40 -27t27 -40t10 -49t-10 -49t-27 -40t-40 -27t-49 -10t-49 10t-40 27t-27 40t-10 49z" />
<glyph unicode="&#x2026;" horiz-adv-x="1589" d="M676 102q0 44 31 81t82 37q49 0 79 -37t30 -81q0 -50 -33 -84t-76 -34q-45 0 -79 34t-34 84zM1236 102q0 44 31 81t82 37q49 0 79 -37t30 -81q0 -50 -33 -84t-76 -34q-45 0 -79 34t-34 84zM124 102q0 44 31 81t82 37q49 0 79 -37t30 -81q0 -50 -33 -84t-76 -34 q-45 0 -79 34t-34 84z" />
<glyph unicode="&#x2039;" horiz-adv-x="740" d="M81 533v12l391 437l88 -75l-289 -361v-8l279 -360l-83 -75z" />
<glyph unicode="&#x203a;" horiz-adv-x="749" d="M180 907l88 75l391 -437v-12l-386 -430l-83 75l279 360v8z" />
<glyph unicode="&#x2044;" horiz-adv-x="437" d="M-481 23l1289 1587l93 -60l-1289 -1588z" />
<glyph unicode="&#x2074;" horiz-adv-x="896" d="M63 926v49l443 592h150v-513h158v-128h-157v-237h-169v237h-425zM235 1054h253v347z" />
<glyph unicode="&#x20ac;" horiz-adv-x="1198" d="M60 674v114h118q0 33 1 60t3 50h-122v110h134q21 125 67 234.5t114.5 190.5t158 128t198.5 47q67 0 117.5 -6.5t94.5 -25t87.5 -53t96.5 -90.5l-91 -129q-51 51 -91.5 82t-76.5 48.5t-69.5 23.5t-70.5 6q-70 0 -128.5 -35t-104 -96.5t-77 -145t-46.5 -179.5h520l-19 -110 h-514q-2 -28 -2.5 -55.5t0.5 -54.5h501l-19 -114h-475q10 -120 37.5 -221.5t70.5 -176t101 -116t130 -41.5q45 0 81.5 6.5t69.5 26t66 55t73 93.5l133 -88q-53 -75 -101.5 -121.5t-99 -72t-108 -34.5t-128.5 -9q-120 0 -210 57.5t-153 154.5t-99 223.5t-46 263.5h-122z" />
<glyph unicode="&#x2122;" horiz-adv-x="1903" d="M108 1414v153h939l291 -657l291 657h173v-899h-160v575l-265 -575h-88l-256 574v-574h-159v746h-300v-746h-159v746h-307z" />
<glyph unicode="&#xe000;" horiz-adv-x="1080" d="M0 1080h1080v-1080h-1080v1080z" />
<glyph unicode="&#xfb01;" horiz-adv-x="1115" d="M46 947v133h146v92q0 108 31 185t85 127t127 73.5t156 23.5q58 0 113 -9t102 -21.5t82.5 -27.5t54.5 -27l-69 -152q-18 10 -48.5 28t-70 35.5t-86 30t-95.5 12.5q-117 0 -170.5 -57t-53.5 -170v-143h615v-1080h-159v947h-456v-947h-158v947h-146z" />
<glyph unicode="&#xfb02;" horiz-adv-x="1171" d="M44 948v132h146v88q0 111 32.5 189.5t87 128t126 72.5t149.5 23q63 0 124.5 -9t111.5 -23l140 18v-1350q0 -57 24.5 -79t84.5 -22q9 0 26 1t28 3l24 -92q-18 -8 -40.5 -16t-46.5 -14.5t-48.5 -10.5t-45.5 -4q-31 0 -60.5 9.5t-52.5 32.5t-37 61.5t-14 96.5v764h-455v-947 h-158v948h-146zM348 1080h455v308q-42 21 -102 41t-126 20q-121 0 -174 -57.5t-53 -168.5v-143z" />
<glyph unicode="&#xfb03;" horiz-adv-x="1721" d="M36 948v132h146v84q0 111 32 190t86 129.5t125 74t149 23.5q51 0 105 -8.5t102.5 -20.5t87.5 -26t60 -26q53 42 120.5 61.5t145.5 19.5q58 0 113 -9t102 -21.5t83 -27.5t54 -27l-69 -152q-18 10 -48.5 28t-70 35.5t-85.5 30t-95 12.5q-118 0 -175.5 -58.5t-57.5 -170.5 v-141h623v-1080h-158v947h-457v-947h-158v948h-456v-948h-158v948h-146zM340 1080h456v92q0 60 10 107.5t28 87.5q-19 11 -47.5 25.5t-63 27t-73.5 21.5t-79 9q-117 0 -174 -60t-57 -164v-146z" />
<glyph unicode="&#xfb04;" horiz-adv-x="1780" d="M34 948v132h146v87q0 111 33 189.5t87.5 128.5t126.5 73t150 23q53 0 106.5 -8.5t100.5 -21.5t84.5 -28t58.5 -27q54 45 120.5 65t140.5 20q63 0 124.5 -9t111.5 -23l140 18v-1350q0 -57 24.5 -79t84.5 -22q9 0 26 1t28 3l24 -92q-18 -8 -40.5 -16t-46.5 -14.5 t-48.5 -10.5t-45.5 -4q-31 0 -60.5 9.5t-52.5 32.5t-37 61.5t-14 96.5v764h-455v-947h-158v948h-455v-948h-158v948h-146zM338 1080h455v88q0 60 10 107t29 88q-20 11 -47.5 26t-61 28.5t-71.5 23t-78 9.5q-118 0 -177 -62.5t-59 -165.5v-142zM951 1080h455v308 q-42 21 -102 41t-126 20q-121 0 -174 -58.5t-53 -172.5v-138z" />
</font>
</defs>
</svg>
